<mxfile host="app.diagrams.net" modified="2023-04-16T15:19:56.228Z" agent="Mozilla/5.0 (Windows NT 10.0; Win64; x64) AppleWebKit/537.36 (KHTML, like Gecko) Chrome/111.0.0.0 Safari/537.36" etag="eCbqhbMjx-kn3tHuMNau" version="21.1.8" type="device" pages="3">
  <diagram name="Architecture" id="9f46799a-70d6-7492-0946-bef42562c5a5">
    <mxGraphModel dx="2100" dy="1154" grid="1" gridSize="10" guides="1" tooltips="1" connect="1" arrows="1" fold="1" page="1" pageScale="1" pageWidth="4681" pageHeight="3300" background="none" math="0" shadow="0">
      <root>
        <mxCell id="0" />
        <mxCell id="1" parent="0" />
        <mxCell id="78961159f06e98e8-17" value="load_teams" style="swimlane;html=1;fontStyle=1;align=center;verticalAlign=top;childLayout=stackLayout;horizontal=1;startSize=26;horizontalStack=0;resizeParent=1;resizeLast=0;collapsible=1;marginBottom=0;swimlaneFillColor=#ffffff;rounded=0;shadow=0;comic=0;labelBackgroundColor=none;strokeWidth=1;fillColor=none;fontFamily=Verdana;fontSize=12" parent="1" vertex="1">
          <mxGeometry x="200" y="252" width="200" height="150" as="geometry" />
        </mxCell>
        <mxCell id="78961159f06e98e8-21" value="+&amp;nbsp;m_file_name&lt;span style=&quot;background-color: initial;&quot;&gt;: QString&lt;/span&gt;" style="text;html=1;strokeColor=none;fillColor=none;align=left;verticalAlign=top;spacingLeft=4;spacingRight=4;whiteSpace=wrap;overflow=hidden;rotatable=0;points=[[0,0.5],[1,0.5]];portConstraint=eastwest;" parent="78961159f06e98e8-17" vertex="1">
          <mxGeometry y="26" width="200" height="26" as="geometry" />
        </mxCell>
        <mxCell id="78961159f06e98e8-19" value="" style="line;html=1;strokeWidth=1;fillColor=none;align=left;verticalAlign=middle;spacingTop=-1;spacingLeft=3;spacingRight=3;rotatable=0;labelPosition=right;points=[];portConstraint=eastwest;" parent="78961159f06e98e8-17" vertex="1">
          <mxGeometry y="52" width="200" height="8" as="geometry" />
        </mxCell>
        <mxCell id="78961159f06e98e8-20" value="+ exit_button_clicked&lt;span style=&quot;background-color: initial;&quot;&gt;(void): void&lt;/span&gt;" style="text;html=1;strokeColor=none;fillColor=none;align=left;verticalAlign=top;spacingLeft=4;spacingRight=4;whiteSpace=wrap;overflow=hidden;rotatable=0;points=[[0,0.5],[1,0.5]];portConstraint=eastwest;" parent="78961159f06e98e8-17" vertex="1">
          <mxGeometry y="60" width="200" height="26" as="geometry" />
        </mxCell>
        <mxCell id="78961159f06e98e8-27" value="+&amp;nbsp;next_button_clicked&lt;span style=&quot;background-color: initial;&quot;&gt;(void): void&lt;/span&gt;" style="text;html=1;strokeColor=none;fillColor=none;align=left;verticalAlign=top;spacingLeft=4;spacingRight=4;whiteSpace=wrap;overflow=hidden;rotatable=0;points=[[0,0.5],[1,0.5]];portConstraint=eastwest;" parent="78961159f06e98e8-17" vertex="1">
          <mxGeometry y="86" width="200" height="26" as="geometry" />
        </mxCell>
        <mxCell id="L7bbQQbPtRse-n9dnxGg-32" value="+&amp;nbsp;load_button_clicked&lt;span style=&quot;background-color: initial;&quot;&gt;(void): void&lt;/span&gt;" style="text;html=1;strokeColor=none;fillColor=none;align=left;verticalAlign=top;spacingLeft=4;spacingRight=4;whiteSpace=wrap;overflow=hidden;rotatable=0;points=[[0,0.5],[1,0.5]];portConstraint=eastwest;" parent="78961159f06e98e8-17" vertex="1">
          <mxGeometry y="112" width="200" height="26" as="geometry" />
        </mxCell>
        <mxCell id="78961159f06e98e8-30" value="MainWindow" style="swimlane;html=1;fontStyle=1;align=center;verticalAlign=top;childLayout=stackLayout;horizontal=1;startSize=26;horizontalStack=0;resizeParent=1;resizeLast=0;collapsible=1;marginBottom=0;swimlaneFillColor=#ffffff;rounded=0;shadow=0;comic=0;labelBackgroundColor=none;strokeWidth=1;fillColor=none;fontFamily=Verdana;fontSize=12" parent="1" vertex="1">
          <mxGeometry x="600" y="200" width="280" height="346" as="geometry">
            <mxRectangle x="431" y="83" width="130" height="30" as="alternateBounds" />
          </mxGeometry>
        </mxCell>
        <mxCell id="78961159f06e98e8-33" value="+ *m_timer: QTimer" style="text;html=1;strokeColor=none;fillColor=none;align=left;verticalAlign=top;spacingLeft=4;spacingRight=4;whiteSpace=wrap;overflow=hidden;rotatable=0;points=[[0,0.5],[1,0.5]];portConstraint=eastwest;" parent="78961159f06e98e8-30" vertex="1">
          <mxGeometry y="26" width="280" height="26" as="geometry" />
        </mxCell>
        <mxCell id="78961159f06e98e8-32" value="+ *m_load_teams: load_teams" style="text;html=1;strokeColor=none;fillColor=none;align=left;verticalAlign=top;spacingLeft=4;spacingRight=4;whiteSpace=wrap;overflow=hidden;rotatable=0;points=[[0,0.5],[1,0.5]];portConstraint=eastwest;" parent="78961159f06e98e8-30" vertex="1">
          <mxGeometry y="52" width="280" height="26" as="geometry" />
        </mxCell>
        <mxCell id="78961159f06e98e8-31" value="+ m_team&lt;span style=&quot;background-color: initial;&quot;&gt;:&amp;nbsp;map&amp;lt;QString,team&amp;gt;&lt;/span&gt;" style="text;html=1;strokeColor=none;fillColor=none;align=left;verticalAlign=top;spacingLeft=4;spacingRight=4;whiteSpace=wrap;overflow=hidden;rotatable=0;points=[[0,0.5],[1,0.5]];portConstraint=eastwest;" parent="78961159f06e98e8-30" vertex="1">
          <mxGeometry y="78" width="280" height="26" as="geometry" />
        </mxCell>
        <mxCell id="78961159f06e98e8-34" value="+ field: type" style="text;html=1;strokeColor=none;fillColor=none;align=left;verticalAlign=top;spacingLeft=4;spacingRight=4;whiteSpace=wrap;overflow=hidden;rotatable=0;points=[[0,0.5],[1,0.5]];portConstraint=eastwest;" parent="78961159f06e98e8-30" vertex="1">
          <mxGeometry y="104" width="280" height="26" as="geometry" />
        </mxCell>
        <mxCell id="78961159f06e98e8-36" value="+ field: type" style="text;html=1;strokeColor=none;fillColor=none;align=left;verticalAlign=top;spacingLeft=4;spacingRight=4;whiteSpace=wrap;overflow=hidden;rotatable=0;points=[[0,0.5],[1,0.5]];portConstraint=eastwest;" parent="78961159f06e98e8-30" vertex="1">
          <mxGeometry y="130" width="280" height="26" as="geometry" />
        </mxCell>
        <mxCell id="vOvf09MJ9IDyiBi9rteF-7" value="- *m_team_information: team_information" style="text;html=1;strokeColor=none;fillColor=none;align=left;verticalAlign=top;spacingLeft=4;spacingRight=4;whiteSpace=wrap;overflow=hidden;rotatable=0;points=[[0,0.5],[1,0.5]];portConstraint=eastwest;" vertex="1" parent="78961159f06e98e8-30">
          <mxGeometry y="156" width="280" height="26" as="geometry" />
        </mxCell>
        <mxCell id="vOvf09MJ9IDyiBi9rteF-8" value="- *m_classificatrion: classification" style="text;html=1;strokeColor=none;fillColor=none;align=left;verticalAlign=top;spacingLeft=4;spacingRight=4;whiteSpace=wrap;overflow=hidden;rotatable=0;points=[[0,0.5],[1,0.5]];portConstraint=eastwest;" vertex="1" parent="78961159f06e98e8-30">
          <mxGeometry y="182" width="280" height="26" as="geometry" />
        </mxCell>
        <mxCell id="78961159f06e98e8-37" value="- *m_tournament_bracket:&amp;nbsp;tournament_bracket" style="text;html=1;strokeColor=none;fillColor=none;align=left;verticalAlign=top;spacingLeft=4;spacingRight=4;whiteSpace=wrap;overflow=hidden;rotatable=0;points=[[0,0.5],[1,0.5]];portConstraint=eastwest;" parent="78961159f06e98e8-30" vertex="1">
          <mxGeometry y="208" width="280" height="26" as="geometry" />
        </mxCell>
        <mxCell id="l4yc9uIh_lK3EeILEZxp-56" value="- *m_best_players: best_players" style="text;html=1;strokeColor=none;fillColor=none;align=left;verticalAlign=top;spacingLeft=4;spacingRight=4;whiteSpace=wrap;overflow=hidden;rotatable=0;points=[[0,0.5],[1,0.5]];portConstraint=eastwest;" parent="78961159f06e98e8-30" vertex="1">
          <mxGeometry y="234" width="280" height="26" as="geometry" />
        </mxCell>
        <mxCell id="78961159f06e98e8-38" value="" style="line;html=1;strokeWidth=1;fillColor=none;align=left;verticalAlign=middle;spacingTop=-1;spacingLeft=3;spacingRight=3;rotatable=0;labelPosition=right;points=[];portConstraint=eastwest;" parent="78961159f06e98e8-30" vertex="1">
          <mxGeometry y="260" width="280" height="8" as="geometry" />
        </mxCell>
        <mxCell id="78961159f06e98e8-39" value="+ method(type): type" style="text;html=1;strokeColor=none;fillColor=none;align=left;verticalAlign=top;spacingLeft=4;spacingRight=4;whiteSpace=wrap;overflow=hidden;rotatable=0;points=[[0,0.5],[1,0.5]];portConstraint=eastwest;" parent="78961159f06e98e8-30" vertex="1">
          <mxGeometry y="268" width="280" height="26" as="geometry" />
        </mxCell>
        <mxCell id="78961159f06e98e8-40" value="+ method(type): type" style="text;html=1;strokeColor=none;fillColor=none;align=left;verticalAlign=top;spacingLeft=4;spacingRight=4;whiteSpace=wrap;overflow=hidden;rotatable=0;points=[[0,0.5],[1,0.5]];portConstraint=eastwest;" parent="78961159f06e98e8-30" vertex="1">
          <mxGeometry y="294" width="280" height="26" as="geometry" />
        </mxCell>
        <mxCell id="78961159f06e98e8-42" value="+ method(type): type" style="text;html=1;strokeColor=none;fillColor=none;align=left;verticalAlign=top;spacingLeft=4;spacingRight=4;whiteSpace=wrap;overflow=hidden;rotatable=0;points=[[0,0.5],[1,0.5]];portConstraint=eastwest;" parent="78961159f06e98e8-30" vertex="1">
          <mxGeometry y="320" width="280" height="26" as="geometry" />
        </mxCell>
        <mxCell id="78961159f06e98e8-43" value="team" style="swimlane;html=1;fontStyle=1;align=center;verticalAlign=top;childLayout=stackLayout;horizontal=1;startSize=26;horizontalStack=0;resizeParent=1;resizeLast=0;collapsible=1;marginBottom=0;swimlaneFillColor=#ffffff;rounded=0;shadow=0;comic=0;labelBackgroundColor=none;strokeWidth=1;fillColor=none;fontFamily=Verdana;fontSize=12" parent="1" vertex="1">
          <mxGeometry x="1420" y="280" width="360" height="257" as="geometry">
            <mxRectangle x="880" y="83" width="70" height="30" as="alternateBounds" />
          </mxGeometry>
        </mxCell>
        <mxCell id="78961159f06e98e8-45" value="- m_team_name: QString" style="text;html=1;strokeColor=none;fillColor=none;align=left;verticalAlign=top;spacingLeft=4;spacingRight=4;whiteSpace=wrap;overflow=hidden;rotatable=0;points=[[0,0.5],[1,0.5]];portConstraint=eastwest;" parent="78961159f06e98e8-43" vertex="1">
          <mxGeometry y="26" width="360" height="26" as="geometry" />
        </mxCell>
        <mxCell id="78961159f06e98e8-49" value="- m_n_coaches: unsigned int" style="text;html=1;strokeColor=none;fillColor=none;align=left;verticalAlign=top;spacingLeft=4;spacingRight=4;whiteSpace=wrap;overflow=hidden;rotatable=0;points=[[0,0.5],[1,0.5]];portConstraint=eastwest;" parent="78961159f06e98e8-43" vertex="1">
          <mxGeometry y="52" width="360" height="26" as="geometry" />
        </mxCell>
        <mxCell id="78961159f06e98e8-50" value="- m_n_players: unsigned int" style="text;html=1;strokeColor=none;fillColor=none;align=left;verticalAlign=top;spacingLeft=4;spacingRight=4;whiteSpace=wrap;overflow=hidden;rotatable=0;points=[[0,0.5],[1,0.5]];portConstraint=eastwest;" parent="78961159f06e98e8-43" vertex="1">
          <mxGeometry y="78" width="360" height="26" as="geometry" />
        </mxCell>
        <mxCell id="L7bbQQbPtRse-n9dnxGg-3" value="- m_n_coaches: QString" style="text;html=1;strokeColor=none;fillColor=none;align=left;verticalAlign=top;spacingLeft=4;spacingRight=4;whiteSpace=wrap;overflow=hidden;rotatable=0;points=[[0,0.5],[1,0.5]];portConstraint=eastwest;" parent="78961159f06e98e8-43" vertex="1">
          <mxGeometry y="104" width="360" height="26" as="geometry" />
        </mxCell>
        <mxCell id="L7bbQQbPtRse-n9dnxGg-2" value="- m_coaches_name: QString" style="text;html=1;strokeColor=none;fillColor=none;align=left;verticalAlign=top;spacingLeft=4;spacingRight=4;whiteSpace=wrap;overflow=hidden;rotatable=0;points=[[0,0.5],[1,0.5]];portConstraint=eastwest;" parent="78961159f06e98e8-43" vertex="1">
          <mxGeometry y="130" width="360" height="26" as="geometry" />
        </mxCell>
        <mxCell id="78961159f06e98e8-44" value="+ m_team_players: map&amp;lt;unsigned int, basketball_player&amp;gt;" style="text;html=1;strokeColor=none;fillColor=none;align=left;verticalAlign=top;spacingLeft=4;spacingRight=4;whiteSpace=wrap;overflow=hidden;rotatable=0;points=[[0,0.5],[1,0.5]];portConstraint=eastwest;" parent="78961159f06e98e8-43" vertex="1">
          <mxGeometry y="156" width="360" height="26" as="geometry" />
        </mxCell>
        <mxCell id="78961159f06e98e8-51" value="" style="line;html=1;strokeWidth=1;fillColor=none;align=left;verticalAlign=middle;spacingTop=-1;spacingLeft=3;spacingRight=3;rotatable=0;labelPosition=right;points=[];portConstraint=eastwest;" parent="78961159f06e98e8-43" vertex="1">
          <mxGeometry y="182" width="360" height="8" as="geometry" />
        </mxCell>
        <mxCell id="78961159f06e98e8-52" value="+ configure_team(QString): void" style="text;html=1;strokeColor=none;fillColor=none;align=left;verticalAlign=top;spacingLeft=4;spacingRight=4;whiteSpace=wrap;overflow=hidden;rotatable=0;points=[[0,0.5],[1,0.5]];portConstraint=eastwest;" parent="78961159f06e98e8-43" vertex="1">
          <mxGeometry y="190" width="360" height="26" as="geometry" />
        </mxCell>
        <mxCell id="78961159f06e98e8-53" value="+ get_team_name(void): QString" style="text;html=1;strokeColor=none;fillColor=none;align=left;verticalAlign=top;spacingLeft=4;spacingRight=4;whiteSpace=wrap;overflow=hidden;rotatable=0;points=[[0,0.5],[1,0.5]];portConstraint=eastwest;" parent="78961159f06e98e8-43" vertex="1">
          <mxGeometry y="216" width="360" height="26" as="geometry" />
        </mxCell>
        <mxCell id="78961159f06e98e8-108" value="basketball_player" style="swimlane;html=1;fontStyle=1;align=center;verticalAlign=top;childLayout=stackLayout;horizontal=1;startSize=26;horizontalStack=0;resizeParent=1;resizeLast=0;collapsible=1;marginBottom=0;swimlaneFillColor=#ffffff;rounded=0;shadow=0;comic=0;labelBackgroundColor=none;strokeWidth=1;fillColor=none;fontFamily=Verdana;fontSize=12" parent="1" vertex="1">
          <mxGeometry x="1920" y="400" width="360" height="606" as="geometry" />
        </mxCell>
        <mxCell id="78961159f06e98e8-109" value="+&amp;nbsp;m_team_name&lt;span style=&quot;background-color: initial;&quot;&gt;: QString&lt;/span&gt;" style="text;html=1;strokeColor=none;fillColor=none;align=left;verticalAlign=top;spacingLeft=4;spacingRight=4;whiteSpace=wrap;overflow=hidden;rotatable=0;points=[[0,0.5],[1,0.5]];portConstraint=eastwest;" parent="78961159f06e98e8-108" vertex="1">
          <mxGeometry y="26" width="360" height="26" as="geometry" />
        </mxCell>
        <mxCell id="78961159f06e98e8-110" value="+&amp;nbsp;m_player_name&lt;span style=&quot;background-color: initial;&quot;&gt;: QString&lt;/span&gt;" style="text;html=1;strokeColor=none;fillColor=none;align=left;verticalAlign=top;spacingLeft=4;spacingRight=4;whiteSpace=wrap;overflow=hidden;rotatable=0;points=[[0,0.5],[1,0.5]];portConstraint=eastwest;" parent="78961159f06e98e8-108" vertex="1">
          <mxGeometry y="52" width="360" height="26" as="geometry" />
        </mxCell>
        <mxCell id="L7bbQQbPtRse-n9dnxGg-4" value="+&amp;nbsp;m_shirt_number&lt;span style=&quot;background-color: initial;&quot;&gt;: unsigned int&lt;/span&gt;" style="text;html=1;strokeColor=none;fillColor=none;align=left;verticalAlign=top;spacingLeft=4;spacingRight=4;whiteSpace=wrap;overflow=hidden;rotatable=0;points=[[0,0.5],[1,0.5]];portConstraint=eastwest;" parent="78961159f06e98e8-108" vertex="1">
          <mxGeometry y="78" width="360" height="26" as="geometry" />
        </mxCell>
        <mxCell id="L7bbQQbPtRse-n9dnxGg-5" value="+&amp;nbsp;m_minutes_played&lt;span style=&quot;background-color: initial;&quot;&gt;:&amp;nbsp;&lt;/span&gt;unsigned int" style="text;html=1;strokeColor=none;fillColor=none;align=left;verticalAlign=top;spacingLeft=4;spacingRight=4;whiteSpace=wrap;overflow=hidden;rotatable=0;points=[[0,0.5],[1,0.5]];portConstraint=eastwest;" parent="78961159f06e98e8-108" vertex="1">
          <mxGeometry y="104" width="360" height="26" as="geometry" />
        </mxCell>
        <mxCell id="L7bbQQbPtRse-n9dnxGg-6" value="+&amp;nbsp;m_points&lt;span style=&quot;background-color: initial;&quot;&gt;:&amp;nbsp;&lt;/span&gt;unsigned int" style="text;html=1;strokeColor=none;fillColor=none;align=left;verticalAlign=top;spacingLeft=4;spacingRight=4;whiteSpace=wrap;overflow=hidden;rotatable=0;points=[[0,0.5],[1,0.5]];portConstraint=eastwest;" parent="78961159f06e98e8-108" vertex="1">
          <mxGeometry y="130" width="360" height="26" as="geometry" />
        </mxCell>
        <mxCell id="L7bbQQbPtRse-n9dnxGg-7" value="+&amp;nbsp;m_t1_s&lt;span style=&quot;background-color: initial;&quot;&gt;:&amp;nbsp;&lt;/span&gt;unsigned int" style="text;html=1;strokeColor=none;fillColor=none;align=left;verticalAlign=top;spacingLeft=4;spacingRight=4;whiteSpace=wrap;overflow=hidden;rotatable=0;points=[[0,0.5],[1,0.5]];portConstraint=eastwest;" parent="78961159f06e98e8-108" vertex="1">
          <mxGeometry y="156" width="360" height="26" as="geometry" />
        </mxCell>
        <mxCell id="L7bbQQbPtRse-n9dnxGg-8" value="+&amp;nbsp;m_t2_s&lt;span style=&quot;background-color: initial;&quot;&gt;:&amp;nbsp;&lt;/span&gt;unsigned int" style="text;html=1;strokeColor=none;fillColor=none;align=left;verticalAlign=top;spacingLeft=4;spacingRight=4;whiteSpace=wrap;overflow=hidden;rotatable=0;points=[[0,0.5],[1,0.5]];portConstraint=eastwest;" parent="78961159f06e98e8-108" vertex="1">
          <mxGeometry y="182" width="360" height="26" as="geometry" />
        </mxCell>
        <mxCell id="L7bbQQbPtRse-n9dnxGg-9" value="+&amp;nbsp;m_t3_s&lt;span style=&quot;background-color: initial;&quot;&gt;:&amp;nbsp;&lt;/span&gt;unsigned int" style="text;html=1;strokeColor=none;fillColor=none;align=left;verticalAlign=top;spacingLeft=4;spacingRight=4;whiteSpace=wrap;overflow=hidden;rotatable=0;points=[[0,0.5],[1,0.5]];portConstraint=eastwest;" parent="78961159f06e98e8-108" vertex="1">
          <mxGeometry y="208" width="360" height="26" as="geometry" />
        </mxCell>
        <mxCell id="L7bbQQbPtRse-n9dnxGg-10" value="+&amp;nbsp;m_t1_f&lt;span style=&quot;background-color: initial;&quot;&gt;:&amp;nbsp;&lt;/span&gt;unsigned int" style="text;html=1;strokeColor=none;fillColor=none;align=left;verticalAlign=top;spacingLeft=4;spacingRight=4;whiteSpace=wrap;overflow=hidden;rotatable=0;points=[[0,0.5],[1,0.5]];portConstraint=eastwest;" parent="78961159f06e98e8-108" vertex="1">
          <mxGeometry y="234" width="360" height="26" as="geometry" />
        </mxCell>
        <mxCell id="L7bbQQbPtRse-n9dnxGg-11" value="+&amp;nbsp;m_t2_f&lt;span style=&quot;background-color: initial;&quot;&gt;:&amp;nbsp;&lt;/span&gt;unsigned int" style="text;html=1;strokeColor=none;fillColor=none;align=left;verticalAlign=top;spacingLeft=4;spacingRight=4;whiteSpace=wrap;overflow=hidden;rotatable=0;points=[[0,0.5],[1,0.5]];portConstraint=eastwest;" parent="78961159f06e98e8-108" vertex="1">
          <mxGeometry y="260" width="360" height="26" as="geometry" />
        </mxCell>
        <mxCell id="L7bbQQbPtRse-n9dnxGg-12" value="+&amp;nbsp;m_t3_f&lt;span style=&quot;background-color: initial;&quot;&gt;:&amp;nbsp;&lt;/span&gt;unsigned int" style="text;html=1;strokeColor=none;fillColor=none;align=left;verticalAlign=top;spacingLeft=4;spacingRight=4;whiteSpace=wrap;overflow=hidden;rotatable=0;points=[[0,0.5],[1,0.5]];portConstraint=eastwest;" parent="78961159f06e98e8-108" vertex="1">
          <mxGeometry y="286" width="360" height="26" as="geometry" />
        </mxCell>
        <mxCell id="L7bbQQbPtRse-n9dnxGg-13" value="+&amp;nbsp;m_dunks&lt;span style=&quot;background-color: initial;&quot;&gt;:&amp;nbsp;&lt;/span&gt;unsigned int" style="text;html=1;strokeColor=none;fillColor=none;align=left;verticalAlign=top;spacingLeft=4;spacingRight=4;whiteSpace=wrap;overflow=hidden;rotatable=0;points=[[0,0.5],[1,0.5]];portConstraint=eastwest;" parent="78961159f06e98e8-108" vertex="1">
          <mxGeometry y="312" width="360" height="26" as="geometry" />
        </mxCell>
        <mxCell id="L7bbQQbPtRse-n9dnxGg-14" value="+&amp;nbsp;m_received_fault&lt;span style=&quot;background-color: initial;&quot;&gt;:&amp;nbsp;&lt;/span&gt;unsigned int" style="text;html=1;strokeColor=none;fillColor=none;align=left;verticalAlign=top;spacingLeft=4;spacingRight=4;whiteSpace=wrap;overflow=hidden;rotatable=0;points=[[0,0.5],[1,0.5]];portConstraint=eastwest;" parent="78961159f06e98e8-108" vertex="1">
          <mxGeometry y="338" width="360" height="26" as="geometry" />
        </mxCell>
        <mxCell id="L7bbQQbPtRse-n9dnxGg-15" value="+&amp;nbsp;m_personal_fault&lt;span style=&quot;background-color: initial;&quot;&gt;:&amp;nbsp;&lt;/span&gt;unsigned int" style="text;html=1;strokeColor=none;fillColor=none;align=left;verticalAlign=top;spacingLeft=4;spacingRight=4;whiteSpace=wrap;overflow=hidden;rotatable=0;points=[[0,0.5],[1,0.5]];portConstraint=eastwest;" parent="78961159f06e98e8-108" vertex="1">
          <mxGeometry y="364" width="360" height="26" as="geometry" />
        </mxCell>
        <mxCell id="L7bbQQbPtRse-n9dnxGg-16" value="+&amp;nbsp;m_defensive_rebound&lt;span style=&quot;background-color: initial;&quot;&gt;:&amp;nbsp;&lt;/span&gt;unsigned int" style="text;html=1;strokeColor=none;fillColor=none;align=left;verticalAlign=top;spacingLeft=4;spacingRight=4;whiteSpace=wrap;overflow=hidden;rotatable=0;points=[[0,0.5],[1,0.5]];portConstraint=eastwest;" parent="78961159f06e98e8-108" vertex="1">
          <mxGeometry y="390" width="360" height="26" as="geometry" />
        </mxCell>
        <mxCell id="L7bbQQbPtRse-n9dnxGg-17" value="+&amp;nbsp;m_steals&lt;span style=&quot;background-color: initial;&quot;&gt;:&amp;nbsp;&lt;/span&gt;unsigned int" style="text;html=1;strokeColor=none;fillColor=none;align=left;verticalAlign=top;spacingLeft=4;spacingRight=4;whiteSpace=wrap;overflow=hidden;rotatable=0;points=[[0,0.5],[1,0.5]];portConstraint=eastwest;" parent="78961159f06e98e8-108" vertex="1">
          <mxGeometry y="416" width="360" height="26" as="geometry" />
        </mxCell>
        <mxCell id="L7bbQQbPtRse-n9dnxGg-18" value="+&amp;nbsp;m_losts&lt;span style=&quot;background-color: initial;&quot;&gt;:&amp;nbsp;&lt;/span&gt;unsigned int" style="text;html=1;strokeColor=none;fillColor=none;align=left;verticalAlign=top;spacingLeft=4;spacingRight=4;whiteSpace=wrap;overflow=hidden;rotatable=0;points=[[0,0.5],[1,0.5]];portConstraint=eastwest;" parent="78961159f06e98e8-108" vertex="1">
          <mxGeometry y="442" width="360" height="26" as="geometry" />
        </mxCell>
        <mxCell id="L7bbQQbPtRse-n9dnxGg-19" value="+&amp;nbsp;m_assists&lt;span style=&quot;background-color: initial;&quot;&gt;:&amp;nbsp;&lt;/span&gt;unsigned int" style="text;html=1;strokeColor=none;fillColor=none;align=left;verticalAlign=top;spacingLeft=4;spacingRight=4;whiteSpace=wrap;overflow=hidden;rotatable=0;points=[[0,0.5],[1,0.5]];portConstraint=eastwest;" parent="78961159f06e98e8-108" vertex="1">
          <mxGeometry y="468" width="360" height="26" as="geometry" />
        </mxCell>
        <mxCell id="L7bbQQbPtRse-n9dnxGg-20" value="+&amp;nbsp;m_blocked_received&lt;span style=&quot;background-color: initial;&quot;&gt;:&amp;nbsp;&lt;/span&gt;unsigned int" style="text;html=1;strokeColor=none;fillColor=none;align=left;verticalAlign=top;spacingLeft=4;spacingRight=4;whiteSpace=wrap;overflow=hidden;rotatable=0;points=[[0,0.5],[1,0.5]];portConstraint=eastwest;" parent="78961159f06e98e8-108" vertex="1">
          <mxGeometry y="494" width="360" height="26" as="geometry" />
        </mxCell>
        <mxCell id="L7bbQQbPtRse-n9dnxGg-21" value="+&amp;nbsp;m_blocked_done&lt;span style=&quot;background-color: initial;&quot;&gt;:&amp;nbsp;&lt;/span&gt;unsigned int" style="text;html=1;strokeColor=none;fillColor=none;align=left;verticalAlign=top;spacingLeft=4;spacingRight=4;whiteSpace=wrap;overflow=hidden;rotatable=0;points=[[0,0.5],[1,0.5]];portConstraint=eastwest;" parent="78961159f06e98e8-108" vertex="1">
          <mxGeometry y="520" width="360" height="26" as="geometry" />
        </mxCell>
        <mxCell id="78961159f06e98e8-116" value="" style="line;html=1;strokeWidth=1;fillColor=none;align=left;verticalAlign=middle;spacingTop=-1;spacingLeft=3;spacingRight=3;rotatable=0;labelPosition=right;points=[];portConstraint=eastwest;" parent="78961159f06e98e8-108" vertex="1">
          <mxGeometry y="546" width="360" height="8" as="geometry" />
        </mxCell>
        <mxCell id="78961159f06e98e8-117" value="+ configure_player(type): type" style="text;html=1;strokeColor=none;fillColor=none;align=left;verticalAlign=top;spacingLeft=4;spacingRight=4;whiteSpace=wrap;overflow=hidden;rotatable=0;points=[[0,0.5],[1,0.5]];portConstraint=eastwest;" parent="78961159f06e98e8-108" vertex="1">
          <mxGeometry y="554" width="360" height="26" as="geometry" />
        </mxCell>
        <mxCell id="78961159f06e98e8-120" value="+ method(type): type" style="text;html=1;strokeColor=none;fillColor=none;align=left;verticalAlign=top;spacingLeft=4;spacingRight=4;whiteSpace=wrap;overflow=hidden;rotatable=0;points=[[0,0.5],[1,0.5]];portConstraint=eastwest;" parent="78961159f06e98e8-108" vertex="1">
          <mxGeometry y="580" width="360" height="26" as="geometry" />
        </mxCell>
        <mxCell id="GHx0Sc_nqAwEXRPiMZwl-1" value="" style="endArrow=open;endFill=1;endSize=12;html=1;rounded=0;exitX=1;exitY=0.5;exitDx=0;exitDy=0;entryX=-0.001;entryY=0.056;entryDx=0;entryDy=0;entryPerimeter=0;" parent="1" source="78961159f06e98e8-31" target="78961159f06e98e8-43" edge="1">
          <mxGeometry width="160" relative="1" as="geometry">
            <mxPoint x="860" y="250" as="sourcePoint" />
            <mxPoint x="1040" y="148" as="targetPoint" />
          </mxGeometry>
        </mxCell>
        <mxCell id="L7bbQQbPtRse-n9dnxGg-22" value="QWidget" style="swimlane;html=1;fontStyle=1;align=center;verticalAlign=top;childLayout=stackLayout;horizontal=1;startSize=26;horizontalStack=0;resizeParent=1;resizeLast=0;collapsible=1;marginBottom=0;swimlaneFillColor=#ffffff;rounded=0;shadow=0;comic=0;labelBackgroundColor=none;strokeWidth=1;fillColor=none;fontFamily=Verdana;fontSize=12" parent="1" vertex="1">
          <mxGeometry x="200" y="40" width="200" height="40" as="geometry">
            <mxRectangle x="40" y="40" width="100" height="30" as="alternateBounds" />
          </mxGeometry>
        </mxCell>
        <mxCell id="L7bbQQbPtRse-n9dnxGg-28" value="" style="line;html=1;strokeWidth=1;fillColor=none;align=left;verticalAlign=middle;spacingTop=-1;spacingLeft=3;spacingRight=3;rotatable=0;labelPosition=right;points=[];portConstraint=eastwest;" parent="L7bbQQbPtRse-n9dnxGg-22" vertex="1">
          <mxGeometry y="26" width="200" height="8" as="geometry" />
        </mxCell>
        <mxCell id="l4yc9uIh_lK3EeILEZxp-1" value="" style="endArrow=open;endFill=1;endSize=12;html=1;rounded=0;exitX=0;exitY=0.5;exitDx=0;exitDy=0;entryX=1.002;entryY=0.088;entryDx=0;entryDy=0;entryPerimeter=0;" parent="1" source="78961159f06e98e8-32" target="78961159f06e98e8-17" edge="1">
          <mxGeometry width="160" relative="1" as="geometry">
            <mxPoint x="809" y="327" as="sourcePoint" />
            <mxPoint x="1050" y="210" as="targetPoint" />
          </mxGeometry>
        </mxCell>
        <mxCell id="l4yc9uIh_lK3EeILEZxp-2" value="QMainWindow" style="swimlane;html=1;fontStyle=1;align=center;verticalAlign=top;childLayout=stackLayout;horizontal=1;startSize=26;horizontalStack=0;resizeParent=1;resizeLast=0;collapsible=1;marginBottom=0;swimlaneFillColor=#ffffff;rounded=0;shadow=0;comic=0;labelBackgroundColor=none;strokeWidth=1;fillColor=none;fontFamily=Verdana;fontSize=12" parent="1" vertex="1">
          <mxGeometry x="640" y="40" width="200" height="40" as="geometry">
            <mxRectangle x="40" y="40" width="100" height="30" as="alternateBounds" />
          </mxGeometry>
        </mxCell>
        <mxCell id="l4yc9uIh_lK3EeILEZxp-3" value="" style="line;html=1;strokeWidth=1;fillColor=none;align=left;verticalAlign=middle;spacingTop=-1;spacingLeft=3;spacingRight=3;rotatable=0;labelPosition=right;points=[];portConstraint=eastwest;" parent="l4yc9uIh_lK3EeILEZxp-2" vertex="1">
          <mxGeometry y="26" width="200" height="8" as="geometry" />
        </mxCell>
        <mxCell id="l4yc9uIh_lK3EeILEZxp-5" style="edgeStyle=orthogonalEdgeStyle;html=1;labelBackgroundColor=none;startFill=0;startSize=8;endArrow=block;endFill=0;endSize=16;fontFamily=Verdana;fontSize=12;entryX=0.5;entryY=1;entryDx=0;entryDy=0;" parent="1" source="78961159f06e98e8-17" target="L7bbQQbPtRse-n9dnxGg-22" edge="1">
          <mxGeometry relative="1" as="geometry">
            <Array as="points" />
            <mxPoint x="300" y="252" as="sourcePoint" />
            <mxPoint x="300" y="130" as="targetPoint" />
          </mxGeometry>
        </mxCell>
        <mxCell id="l4yc9uIh_lK3EeILEZxp-6" style="edgeStyle=orthogonalEdgeStyle;html=1;labelBackgroundColor=none;startFill=0;startSize=8;endArrow=block;endFill=0;endSize=16;fontFamily=Verdana;fontSize=12;entryX=0.003;entryY=0.023;entryDx=0;entryDy=0;exitX=1;exitY=0.5;exitDx=0;exitDy=0;entryPerimeter=0;" parent="1" source="78961159f06e98e8-44" target="78961159f06e98e8-108" edge="1">
          <mxGeometry relative="1" as="geometry">
            <Array as="points" />
            <mxPoint x="1340" y="452.5" as="sourcePoint" />
            <mxPoint x="1340" y="360.5" as="targetPoint" />
          </mxGeometry>
        </mxCell>
        <mxCell id="l4yc9uIh_lK3EeILEZxp-7" value="tournament_bracket" style="swimlane;html=1;fontStyle=1;align=center;verticalAlign=top;childLayout=stackLayout;horizontal=1;startSize=26;horizontalStack=0;resizeParent=1;resizeLast=0;collapsible=1;marginBottom=0;swimlaneFillColor=#ffffff;rounded=0;shadow=0;comic=0;labelBackgroundColor=none;strokeWidth=1;fillColor=none;fontFamily=Verdana;fontSize=12" parent="1" vertex="1">
          <mxGeometry x="840" y="720" width="240" height="242" as="geometry">
            <mxRectangle x="431" y="83" width="130" height="30" as="alternateBounds" />
          </mxGeometry>
        </mxCell>
        <mxCell id="l4yc9uIh_lK3EeILEZxp-11" value="- *m_widget: QWidget" style="text;html=1;strokeColor=none;fillColor=none;align=left;verticalAlign=top;spacingLeft=4;spacingRight=4;whiteSpace=wrap;overflow=hidden;rotatable=0;points=[[0,0.5],[1,0.5]];portConstraint=eastwest;" parent="l4yc9uIh_lK3EeILEZxp-7" vertex="1">
          <mxGeometry y="26" width="240" height="26" as="geometry" />
        </mxCell>
        <mxCell id="l4yc9uIh_lK3EeILEZxp-12" value="- m_team_names: QStringList" style="text;html=1;strokeColor=none;fillColor=none;align=left;verticalAlign=top;spacingLeft=4;spacingRight=4;whiteSpace=wrap;overflow=hidden;rotatable=0;points=[[0,0.5],[1,0.5]];portConstraint=eastwest;" parent="l4yc9uIh_lK3EeILEZxp-7" vertex="1">
          <mxGeometry y="52" width="240" height="26" as="geometry" />
        </mxCell>
        <mxCell id="l4yc9uIh_lK3EeILEZxp-13" value="+&amp;nbsp;m_update_btn&lt;span style=&quot;background-color: initial;&quot;&gt;:&amp;nbsp;QPushButton&lt;/span&gt;" style="text;html=1;strokeColor=none;fillColor=none;align=left;verticalAlign=top;spacingLeft=4;spacingRight=4;whiteSpace=wrap;overflow=hidden;rotatable=0;points=[[0,0.5],[1,0.5]];portConstraint=eastwest;" parent="l4yc9uIh_lK3EeILEZxp-7" vertex="1">
          <mxGeometry y="78" width="240" height="26" as="geometry" />
        </mxCell>
        <mxCell id="l4yc9uIh_lK3EeILEZxp-67" value="+&amp;nbsp;m_save_btn&lt;span style=&quot;background-color: initial;&quot;&gt;:&amp;nbsp;QPushButton&lt;/span&gt;" style="text;html=1;strokeColor=none;fillColor=none;align=left;verticalAlign=top;spacingLeft=4;spacingRight=4;whiteSpace=wrap;overflow=hidden;rotatable=0;points=[[0,0.5],[1,0.5]];portConstraint=eastwest;" parent="l4yc9uIh_lK3EeILEZxp-7" vertex="1">
          <mxGeometry y="104" width="240" height="26" as="geometry" />
        </mxCell>
        <mxCell id="l4yc9uIh_lK3EeILEZxp-68" value="+&amp;nbsp;m_pos_chart&lt;span style=&quot;background-color: initial;&quot;&gt;: std::vector&amp;lt;QLineEdit *&amp;gt;&lt;/span&gt;" style="text;html=1;strokeColor=none;fillColor=none;align=left;verticalAlign=top;spacingLeft=4;spacingRight=4;whiteSpace=wrap;overflow=hidden;rotatable=0;points=[[0,0.5],[1,0.5]];portConstraint=eastwest;" parent="l4yc9uIh_lK3EeILEZxp-7" vertex="1">
          <mxGeometry y="130" width="240" height="26" as="geometry" />
        </mxCell>
        <mxCell id="l4yc9uIh_lK3EeILEZxp-14" value="" style="line;html=1;strokeWidth=1;fillColor=none;align=left;verticalAlign=middle;spacingTop=-1;spacingLeft=3;spacingRight=3;rotatable=0;labelPosition=right;points=[];portConstraint=eastwest;" parent="l4yc9uIh_lK3EeILEZxp-7" vertex="1">
          <mxGeometry y="156" width="240" height="8" as="geometry" />
        </mxCell>
        <mxCell id="l4yc9uIh_lK3EeILEZxp-15" value="+ create_ui(): void" style="text;html=1;strokeColor=none;fillColor=none;align=left;verticalAlign=top;spacingLeft=4;spacingRight=4;whiteSpace=wrap;overflow=hidden;rotatable=0;points=[[0,0.5],[1,0.5]];portConstraint=eastwest;" parent="l4yc9uIh_lK3EeILEZxp-7" vertex="1">
          <mxGeometry y="164" width="240" height="26" as="geometry" />
        </mxCell>
        <mxCell id="l4yc9uIh_lK3EeILEZxp-16" value="+ update_ui(): void" style="text;html=1;strokeColor=none;fillColor=none;align=left;verticalAlign=top;spacingLeft=4;spacingRight=4;whiteSpace=wrap;overflow=hidden;rotatable=0;points=[[0,0.5],[1,0.5]];portConstraint=eastwest;" parent="l4yc9uIh_lK3EeILEZxp-7" vertex="1">
          <mxGeometry y="190" width="240" height="26" as="geometry" />
        </mxCell>
        <mxCell id="l4yc9uIh_lK3EeILEZxp-17" value="+&amp;nbsp;save_structure(&lt;span style=&quot;background-color: initial;&quot;&gt;): void&lt;/span&gt;" style="text;html=1;strokeColor=none;fillColor=none;align=left;verticalAlign=top;spacingLeft=4;spacingRight=4;whiteSpace=wrap;overflow=hidden;rotatable=0;points=[[0,0.5],[1,0.5]];portConstraint=eastwest;" parent="l4yc9uIh_lK3EeILEZxp-7" vertex="1">
          <mxGeometry y="216" width="240" height="26" as="geometry" />
        </mxCell>
        <mxCell id="l4yc9uIh_lK3EeILEZxp-18" value="best_players" style="swimlane;html=1;fontStyle=1;align=center;verticalAlign=top;childLayout=stackLayout;horizontal=1;startSize=26;horizontalStack=0;resizeParent=1;resizeLast=0;collapsible=1;marginBottom=0;swimlaneFillColor=#ffffff;rounded=0;shadow=0;comic=0;labelBackgroundColor=none;strokeWidth=1;fillColor=none;fontFamily=Verdana;fontSize=12" parent="1" vertex="1">
          <mxGeometry x="1160" y="720" width="199" height="320" as="geometry">
            <mxRectangle x="431" y="83" width="130" height="30" as="alternateBounds" />
          </mxGeometry>
        </mxCell>
        <mxCell id="l4yc9uIh_lK3EeILEZxp-22" value="- *m_widget: QWidget" style="text;html=1;strokeColor=none;fillColor=none;align=left;verticalAlign=top;spacingLeft=4;spacingRight=4;whiteSpace=wrap;overflow=hidden;rotatable=0;points=[[0,0.5],[1,0.5]];portConstraint=eastwest;" parent="l4yc9uIh_lK3EeILEZxp-18" vertex="1">
          <mxGeometry y="26" width="199" height="26" as="geometry" />
        </mxCell>
        <mxCell id="l4yc9uIh_lK3EeILEZxp-23" value="+ field: type" style="text;html=1;strokeColor=none;fillColor=none;align=left;verticalAlign=top;spacingLeft=4;spacingRight=4;whiteSpace=wrap;overflow=hidden;rotatable=0;points=[[0,0.5],[1,0.5]];portConstraint=eastwest;" parent="l4yc9uIh_lK3EeILEZxp-18" vertex="1">
          <mxGeometry y="52" width="199" height="26" as="geometry" />
        </mxCell>
        <mxCell id="l4yc9uIh_lK3EeILEZxp-24" value="+ field: type" style="text;html=1;strokeColor=none;fillColor=none;align=left;verticalAlign=top;spacingLeft=4;spacingRight=4;whiteSpace=wrap;overflow=hidden;rotatable=0;points=[[0,0.5],[1,0.5]];portConstraint=eastwest;" parent="l4yc9uIh_lK3EeILEZxp-18" vertex="1">
          <mxGeometry y="78" width="199" height="26" as="geometry" />
        </mxCell>
        <mxCell id="l4yc9uIh_lK3EeILEZxp-25" value="" style="line;html=1;strokeWidth=1;fillColor=none;align=left;verticalAlign=middle;spacingTop=-1;spacingLeft=3;spacingRight=3;rotatable=0;labelPosition=right;points=[];portConstraint=eastwest;" parent="l4yc9uIh_lK3EeILEZxp-18" vertex="1">
          <mxGeometry y="104" width="199" height="8" as="geometry" />
        </mxCell>
        <mxCell id="l4yc9uIh_lK3EeILEZxp-26" value="+&amp;nbsp;create_ui()&lt;span style=&quot;background-color: initial;&quot;&gt;: void&lt;/span&gt;" style="text;html=1;strokeColor=none;fillColor=none;align=left;verticalAlign=top;spacingLeft=4;spacingRight=4;whiteSpace=wrap;overflow=hidden;rotatable=0;points=[[0,0.5],[1,0.5]];portConstraint=eastwest;" parent="l4yc9uIh_lK3EeILEZxp-18" vertex="1">
          <mxGeometry y="112" width="199" height="26" as="geometry" />
        </mxCell>
        <mxCell id="l4yc9uIh_lK3EeILEZxp-27" value="- calculate_table(type): void" style="text;html=1;strokeColor=none;fillColor=none;align=left;verticalAlign=top;spacingLeft=4;spacingRight=4;whiteSpace=wrap;overflow=hidden;rotatable=0;points=[[0,0.5],[1,0.5]];portConstraint=eastwest;" parent="l4yc9uIh_lK3EeILEZxp-18" vertex="1">
          <mxGeometry y="138" width="199" height="26" as="geometry" />
        </mxCell>
        <mxCell id="l4yc9uIh_lK3EeILEZxp-28" value="- update_table(type): void" style="text;html=1;strokeColor=none;fillColor=none;align=left;verticalAlign=top;spacingLeft=4;spacingRight=4;whiteSpace=wrap;overflow=hidden;rotatable=0;points=[[0,0.5],[1,0.5]];portConstraint=eastwest;" parent="l4yc9uIh_lK3EeILEZxp-18" vertex="1">
          <mxGeometry y="164" width="199" height="26" as="geometry" />
        </mxCell>
        <mxCell id="l4yc9uIh_lK3EeILEZxp-71" value="-&amp;nbsp;order_by_point&lt;span style=&quot;background-color: initial;&quot;&gt;(type): void&lt;/span&gt;" style="text;html=1;strokeColor=none;fillColor=none;align=left;verticalAlign=top;spacingLeft=4;spacingRight=4;whiteSpace=wrap;overflow=hidden;rotatable=0;points=[[0,0.5],[1,0.5]];portConstraint=eastwest;" parent="l4yc9uIh_lK3EeILEZxp-18" vertex="1">
          <mxGeometry y="190" width="199" height="26" as="geometry" />
        </mxCell>
        <mxCell id="l4yc9uIh_lK3EeILEZxp-70" value="-&amp;nbsp;order_by_steals(type): void" style="text;html=1;strokeColor=none;fillColor=none;align=left;verticalAlign=top;spacingLeft=4;spacingRight=4;whiteSpace=wrap;overflow=hidden;rotatable=0;points=[[0,0.5],[1,0.5]];portConstraint=eastwest;" parent="l4yc9uIh_lK3EeILEZxp-18" vertex="1">
          <mxGeometry y="216" width="199" height="26" as="geometry" />
        </mxCell>
        <mxCell id="l4yc9uIh_lK3EeILEZxp-69" value="-&amp;nbsp;order_by_assists(type): void" style="text;html=1;strokeColor=none;fillColor=none;align=left;verticalAlign=top;spacingLeft=4;spacingRight=4;whiteSpace=wrap;overflow=hidden;rotatable=0;points=[[0,0.5],[1,0.5]];portConstraint=eastwest;" parent="l4yc9uIh_lK3EeILEZxp-18" vertex="1">
          <mxGeometry y="242" width="199" height="26" as="geometry" />
        </mxCell>
        <mxCell id="l4yc9uIh_lK3EeILEZxp-74" value="-&amp;nbsp;order_by_rebounds&lt;span style=&quot;background-color: initial;&quot;&gt;(type): void&lt;/span&gt;" style="text;html=1;strokeColor=none;fillColor=none;align=left;verticalAlign=top;spacingLeft=4;spacingRight=4;whiteSpace=wrap;overflow=hidden;rotatable=0;points=[[0,0.5],[1,0.5]];portConstraint=eastwest;" parent="l4yc9uIh_lK3EeILEZxp-18" vertex="1">
          <mxGeometry y="268" width="199" height="26" as="geometry" />
        </mxCell>
        <mxCell id="l4yc9uIh_lK3EeILEZxp-73" value="-&amp;nbsp;order_by_blocks&lt;span style=&quot;background-color: initial;&quot;&gt;(type): void&lt;/span&gt;" style="text;html=1;strokeColor=none;fillColor=none;align=left;verticalAlign=top;spacingLeft=4;spacingRight=4;whiteSpace=wrap;overflow=hidden;rotatable=0;points=[[0,0.5],[1,0.5]];portConstraint=eastwest;" parent="l4yc9uIh_lK3EeILEZxp-18" vertex="1">
          <mxGeometry y="294" width="199" height="26" as="geometry" />
        </mxCell>
        <mxCell id="l4yc9uIh_lK3EeILEZxp-29" value="classification" style="swimlane;html=1;fontStyle=1;align=center;verticalAlign=top;childLayout=stackLayout;horizontal=1;startSize=26;horizontalStack=0;resizeParent=1;resizeLast=0;collapsible=1;marginBottom=0;swimlaneFillColor=#ffffff;rounded=0;shadow=0;comic=0;labelBackgroundColor=none;strokeWidth=1;fillColor=none;fontFamily=Verdana;fontSize=12" parent="1" vertex="1">
          <mxGeometry x="440" y="720" width="199" height="140" as="geometry">
            <mxRectangle x="431" y="83" width="130" height="30" as="alternateBounds" />
          </mxGeometry>
        </mxCell>
        <mxCell id="l4yc9uIh_lK3EeILEZxp-33" value="+ field: type" style="text;html=1;strokeColor=none;fillColor=none;align=left;verticalAlign=top;spacingLeft=4;spacingRight=4;whiteSpace=wrap;overflow=hidden;rotatable=0;points=[[0,0.5],[1,0.5]];portConstraint=eastwest;" parent="l4yc9uIh_lK3EeILEZxp-29" vertex="1">
          <mxGeometry y="26" width="199" height="26" as="geometry" />
        </mxCell>
        <mxCell id="l4yc9uIh_lK3EeILEZxp-36" value="" style="line;html=1;strokeWidth=1;fillColor=none;align=left;verticalAlign=middle;spacingTop=-1;spacingLeft=3;spacingRight=3;rotatable=0;labelPosition=right;points=[];portConstraint=eastwest;" parent="l4yc9uIh_lK3EeILEZxp-29" vertex="1">
          <mxGeometry y="52" width="199" height="8" as="geometry" />
        </mxCell>
        <mxCell id="l4yc9uIh_lK3EeILEZxp-37" value="+ method(type): type" style="text;html=1;strokeColor=none;fillColor=none;align=left;verticalAlign=top;spacingLeft=4;spacingRight=4;whiteSpace=wrap;overflow=hidden;rotatable=0;points=[[0,0.5],[1,0.5]];portConstraint=eastwest;" parent="l4yc9uIh_lK3EeILEZxp-29" vertex="1">
          <mxGeometry y="60" width="199" height="26" as="geometry" />
        </mxCell>
        <mxCell id="l4yc9uIh_lK3EeILEZxp-38" value="+ method(type): type" style="text;html=1;strokeColor=none;fillColor=none;align=left;verticalAlign=top;spacingLeft=4;spacingRight=4;whiteSpace=wrap;overflow=hidden;rotatable=0;points=[[0,0.5],[1,0.5]];portConstraint=eastwest;" parent="l4yc9uIh_lK3EeILEZxp-29" vertex="1">
          <mxGeometry y="86" width="199" height="26" as="geometry" />
        </mxCell>
        <mxCell id="l4yc9uIh_lK3EeILEZxp-39" value="+ method(type): type" style="text;html=1;strokeColor=none;fillColor=none;align=left;verticalAlign=top;spacingLeft=4;spacingRight=4;whiteSpace=wrap;overflow=hidden;rotatable=0;points=[[0,0.5],[1,0.5]];portConstraint=eastwest;" parent="l4yc9uIh_lK3EeILEZxp-29" vertex="1">
          <mxGeometry y="112" width="199" height="26" as="geometry" />
        </mxCell>
        <mxCell id="l4yc9uIh_lK3EeILEZxp-40" value="team_information" style="swimlane;html=1;fontStyle=1;align=center;verticalAlign=top;childLayout=stackLayout;horizontal=1;startSize=26;horizontalStack=0;resizeParent=1;resizeLast=0;collapsible=1;marginBottom=0;swimlaneFillColor=#ffffff;rounded=0;shadow=0;comic=0;labelBackgroundColor=none;strokeWidth=1;fillColor=none;fontFamily=Verdana;fontSize=12" parent="1" vertex="1">
          <mxGeometry x="40" y="720" width="360" height="372" as="geometry">
            <mxRectangle x="431" y="83" width="130" height="30" as="alternateBounds" />
          </mxGeometry>
        </mxCell>
        <mxCell id="l4yc9uIh_lK3EeILEZxp-41" value="+ *m_widget&lt;span style=&quot;background-color: initial;&quot;&gt;: QWidget&lt;/span&gt;" style="text;html=1;strokeColor=none;fillColor=none;align=left;verticalAlign=top;spacingLeft=4;spacingRight=4;whiteSpace=wrap;overflow=hidden;rotatable=0;points=[[0,0.5],[1,0.5]];portConstraint=eastwest;" parent="l4yc9uIh_lK3EeILEZxp-40" vertex="1">
          <mxGeometry y="26" width="360" height="26" as="geometry" />
        </mxCell>
        <mxCell id="l4yc9uIh_lK3EeILEZxp-42" value="+ *ui&lt;span style=&quot;background-color: initial;&quot;&gt;: Ui::team_information&lt;/span&gt;" style="text;html=1;strokeColor=none;fillColor=none;align=left;verticalAlign=top;spacingLeft=4;spacingRight=4;whiteSpace=wrap;overflow=hidden;rotatable=0;points=[[0,0.5],[1,0.5]];portConstraint=eastwest;" parent="l4yc9uIh_lK3EeILEZxp-40" vertex="1">
          <mxGeometry y="52" width="360" height="26" as="geometry" />
        </mxCell>
        <mxCell id="l4yc9uIh_lK3EeILEZxp-43" value="+ *m_team_information_layout&lt;span style=&quot;background-color: initial;&quot;&gt;:&amp;nbsp;&lt;/span&gt;QVBoxLayout" style="text;html=1;strokeColor=none;fillColor=none;align=left;verticalAlign=top;spacingLeft=4;spacingRight=4;whiteSpace=wrap;overflow=hidden;rotatable=0;points=[[0,0.5],[1,0.5]];portConstraint=eastwest;" parent="l4yc9uIh_lK3EeILEZxp-40" vertex="1">
          <mxGeometry y="78" width="360" height="26" as="geometry" />
        </mxCell>
        <mxCell id="l4yc9uIh_lK3EeILEZxp-44" value="+&amp;nbsp;m_search_counter&lt;span style=&quot;background-color: initial;&quot;&gt;:&amp;nbsp;&lt;/span&gt;int" style="text;html=1;strokeColor=none;fillColor=none;align=left;verticalAlign=top;spacingLeft=4;spacingRight=4;whiteSpace=wrap;overflow=hidden;rotatable=0;points=[[0,0.5],[1,0.5]];portConstraint=eastwest;" parent="l4yc9uIh_lK3EeILEZxp-40" vertex="1">
          <mxGeometry y="104" width="360" height="26" as="geometry" />
        </mxCell>
        <mxCell id="l4yc9uIh_lK3EeILEZxp-45" value="+&amp;nbsp;m_teams&lt;span style=&quot;background-color: initial;&quot;&gt;:&amp;nbsp;&lt;/span&gt;std&lt;span style=&quot;background-color: initial;&quot;&gt;::&lt;/span&gt;&lt;span style=&quot;background-color: initial; color: rgb(128, 0, 128);&quot;&gt;map&lt;/span&gt;&lt;span style=&quot;background-color: initial;&quot;&gt;&amp;lt;&lt;/span&gt;&lt;span style=&quot;background-color: initial; color: rgb(128, 0, 128);&quot;&gt;QString&lt;/span&gt;&lt;span style=&quot;background-color: initial;&quot;&gt;,&lt;/span&gt;&lt;span style=&quot;background-color: initial; color: rgb(192, 192, 192);&quot;&gt; &lt;/span&gt;&lt;span style=&quot;background-color: initial; color: rgb(128, 0, 128);&quot;&gt;team&lt;/span&gt;&lt;span style=&quot;background-color: initial;&quot;&gt;&amp;gt;&lt;/span&gt;" style="text;html=1;strokeColor=none;fillColor=none;align=left;verticalAlign=top;spacingLeft=4;spacingRight=4;whiteSpace=wrap;overflow=hidden;rotatable=0;points=[[0,0.5],[1,0.5]];portConstraint=eastwest;" parent="l4yc9uIh_lK3EeILEZxp-40" vertex="1">
          <mxGeometry y="130" width="360" height="26" as="geometry" />
        </mxCell>
        <mxCell id="l4yc9uIh_lK3EeILEZxp-46" value="+ field: type" style="text;html=1;strokeColor=none;fillColor=none;align=left;verticalAlign=top;spacingLeft=4;spacingRight=4;whiteSpace=wrap;overflow=hidden;rotatable=0;points=[[0,0.5],[1,0.5]];portConstraint=eastwest;" parent="l4yc9uIh_lK3EeILEZxp-40" vertex="1">
          <mxGeometry y="156" width="360" height="26" as="geometry" />
        </mxCell>
        <mxCell id="l4yc9uIh_lK3EeILEZxp-47" value="" style="line;html=1;strokeWidth=1;fillColor=none;align=left;verticalAlign=middle;spacingTop=-1;spacingLeft=3;spacingRight=3;rotatable=0;labelPosition=right;points=[];portConstraint=eastwest;" parent="l4yc9uIh_lK3EeILEZxp-40" vertex="1">
          <mxGeometry y="182" width="360" height="8" as="geometry" />
        </mxCell>
        <mxCell id="l4yc9uIh_lK3EeILEZxp-48" value="+ create_ui&lt;span style=&quot;background-color: initial;&quot;&gt;: void&lt;/span&gt;" style="text;html=1;strokeColor=none;fillColor=none;align=left;verticalAlign=top;spacingLeft=4;spacingRight=4;whiteSpace=wrap;overflow=hidden;rotatable=0;points=[[0,0.5],[1,0.5]];portConstraint=eastwest;" parent="l4yc9uIh_lK3EeILEZxp-40" vertex="1">
          <mxGeometry y="190" width="360" height="26" as="geometry" />
        </mxCell>
        <mxCell id="l4yc9uIh_lK3EeILEZxp-49" value="- generate_team_info_ui&lt;span style=&quot;background-color: initial;&quot;&gt;: void&lt;/span&gt;" style="text;html=1;strokeColor=none;fillColor=none;align=left;verticalAlign=top;spacingLeft=4;spacingRight=4;whiteSpace=wrap;overflow=hidden;rotatable=0;points=[[0,0.5],[1,0.5]];portConstraint=eastwest;" parent="l4yc9uIh_lK3EeILEZxp-40" vertex="1">
          <mxGeometry y="216" width="360" height="26" as="geometry" />
        </mxCell>
        <mxCell id="l4yc9uIh_lK3EeILEZxp-50" value="- generate_player_info_ui&lt;span style=&quot;background-color: initial;&quot;&gt;: void&lt;/span&gt;" style="text;html=1;strokeColor=none;fillColor=none;align=left;verticalAlign=top;spacingLeft=4;spacingRight=4;whiteSpace=wrap;overflow=hidden;rotatable=0;points=[[0,0.5],[1,0.5]];portConstraint=eastwest;" parent="l4yc9uIh_lK3EeILEZxp-40" vertex="1">
          <mxGeometry y="242" width="360" height="26" as="geometry" />
        </mxCell>
        <mxCell id="vOvf09MJ9IDyiBi9rteF-2" value="- refresh_panel_info&lt;span style=&quot;background-color: initial;&quot;&gt;: void&lt;/span&gt;" style="text;html=1;strokeColor=none;fillColor=none;align=left;verticalAlign=top;spacingLeft=4;spacingRight=4;whiteSpace=wrap;overflow=hidden;rotatable=0;points=[[0,0.5],[1,0.5]];portConstraint=eastwest;" vertex="1" parent="l4yc9uIh_lK3EeILEZxp-40">
          <mxGeometry y="268" width="360" height="26" as="geometry" />
        </mxCell>
        <mxCell id="vOvf09MJ9IDyiBi9rteF-5" value="- refresh_team_info_tree_panel&lt;span style=&quot;background-color: initial;&quot;&gt;: void&lt;/span&gt;" style="text;html=1;strokeColor=none;fillColor=none;align=left;verticalAlign=top;spacingLeft=4;spacingRight=4;whiteSpace=wrap;overflow=hidden;rotatable=0;points=[[0,0.5],[1,0.5]];portConstraint=eastwest;" vertex="1" parent="l4yc9uIh_lK3EeILEZxp-40">
          <mxGeometry y="294" width="360" height="26" as="geometry" />
        </mxCell>
        <mxCell id="vOvf09MJ9IDyiBi9rteF-4" value="- on_SearchTeamButton_clicked: void" style="text;html=1;strokeColor=none;fillColor=none;align=left;verticalAlign=top;spacingLeft=4;spacingRight=4;whiteSpace=wrap;overflow=hidden;rotatable=0;points=[[0,0.5],[1,0.5]];portConstraint=eastwest;" vertex="1" parent="l4yc9uIh_lK3EeILEZxp-40">
          <mxGeometry y="320" width="360" height="26" as="geometry" />
        </mxCell>
        <mxCell id="vOvf09MJ9IDyiBi9rteF-3" value="- on_TeamInfoTree_clicked&lt;span style=&quot;background-color: initial;&quot;&gt;(&lt;/span&gt;&lt;span style=&quot;background-color: initial; color: rgb(128, 128, 0);&quot;&gt;const&lt;/span&gt;&lt;span style=&quot;background-color: initial; color: rgb(192, 192, 192);&quot;&gt; &lt;/span&gt;&lt;span style=&quot;background-color: initial; color: rgb(128, 0, 128);&quot;&gt;QModelIndex&lt;/span&gt;&lt;span style=&quot;background-color: initial; color: rgb(192, 192, 192);&quot;&gt; &lt;/span&gt;&lt;span style=&quot;background-color: initial;&quot;&gt;&amp;amp;&lt;/span&gt;&lt;span style=&quot;background-color: initial; color: rgb(9, 46, 100);&quot;&gt;index&lt;/span&gt;&lt;span style=&quot;background-color: initial;&quot;&gt;): void&lt;/span&gt;" style="text;html=1;strokeColor=none;fillColor=none;align=left;verticalAlign=top;spacingLeft=4;spacingRight=4;whiteSpace=wrap;overflow=hidden;rotatable=0;points=[[0,0.5],[1,0.5]];portConstraint=eastwest;" vertex="1" parent="l4yc9uIh_lK3EeILEZxp-40">
          <mxGeometry y="346" width="360" height="26" as="geometry" />
        </mxCell>
        <mxCell id="l4yc9uIh_lK3EeILEZxp-53" value="" style="endArrow=open;endFill=1;endSize=12;html=1;rounded=0;entryX=0.5;entryY=0;entryDx=0;entryDy=0;" parent="1" target="l4yc9uIh_lK3EeILEZxp-40" edge="1">
          <mxGeometry width="160" relative="1" as="geometry">
            <mxPoint x="600" y="370" as="sourcePoint" />
            <mxPoint x="410" y="275" as="targetPoint" />
            <Array as="points">
              <mxPoint x="480" y="370" />
              <mxPoint x="480" y="520" />
              <mxPoint x="220" y="520" />
            </Array>
          </mxGeometry>
        </mxCell>
        <mxCell id="l4yc9uIh_lK3EeILEZxp-54" value="" style="endArrow=open;endFill=1;endSize=12;html=1;rounded=0;entryX=0.5;entryY=0;entryDx=0;entryDy=0;exitX=0;exitY=0.5;exitDx=0;exitDy=0;" parent="1" source="vOvf09MJ9IDyiBi9rteF-8" target="l4yc9uIh_lK3EeILEZxp-29" edge="1">
          <mxGeometry width="160" relative="1" as="geometry">
            <mxPoint x="600" y="400" as="sourcePoint" />
            <mxPoint x="230" y="730" as="targetPoint" />
            <Array as="points">
              <mxPoint x="540" y="395" />
            </Array>
          </mxGeometry>
        </mxCell>
        <mxCell id="l4yc9uIh_lK3EeILEZxp-61" style="edgeStyle=orthogonalEdgeStyle;html=1;labelBackgroundColor=none;startFill=0;startSize=8;endArrow=block;endFill=0;endSize=16;fontFamily=Verdana;fontSize=12;entryX=0.5;entryY=1;entryDx=0;entryDy=0;exitX=0.5;exitY=0;exitDx=0;exitDy=0;" parent="1" source="78961159f06e98e8-30" target="l4yc9uIh_lK3EeILEZxp-2" edge="1">
          <mxGeometry relative="1" as="geometry">
            <Array as="points" />
            <mxPoint x="720" y="220" as="sourcePoint" />
            <mxPoint x="720" y="100" as="targetPoint" />
          </mxGeometry>
        </mxCell>
        <mxCell id="l4yc9uIh_lK3EeILEZxp-62" value="QObject" style="swimlane;html=1;fontStyle=1;align=center;verticalAlign=top;childLayout=stackLayout;horizontal=1;startSize=26;horizontalStack=0;resizeParent=1;resizeLast=0;collapsible=1;marginBottom=0;swimlaneFillColor=#ffffff;rounded=0;shadow=0;comic=0;labelBackgroundColor=none;strokeWidth=1;fillColor=none;fontFamily=Verdana;fontSize=12" parent="1" vertex="1">
          <mxGeometry x="1130" y="30" width="200" height="40" as="geometry">
            <mxRectangle x="40" y="40" width="100" height="30" as="alternateBounds" />
          </mxGeometry>
        </mxCell>
        <mxCell id="l4yc9uIh_lK3EeILEZxp-63" value="" style="line;html=1;strokeWidth=1;fillColor=none;align=left;verticalAlign=middle;spacingTop=-1;spacingLeft=3;spacingRight=3;rotatable=0;labelPosition=right;points=[];portConstraint=eastwest;" parent="l4yc9uIh_lK3EeILEZxp-62" vertex="1">
          <mxGeometry y="26" width="200" height="8" as="geometry" />
        </mxCell>
        <mxCell id="l4yc9uIh_lK3EeILEZxp-64" style="edgeStyle=orthogonalEdgeStyle;html=1;labelBackgroundColor=none;startFill=0;startSize=8;endArrow=block;endFill=0;endSize=16;fontFamily=Verdana;fontSize=12;exitX=0.75;exitY=0;exitDx=0;exitDy=0;" parent="1" source="l4yc9uIh_lK3EeILEZxp-18" target="l4yc9uIh_lK3EeILEZxp-62" edge="1">
          <mxGeometry relative="1" as="geometry">
            <Array as="points" />
            <mxPoint x="750" y="210" as="sourcePoint" />
            <mxPoint x="1350" y="120" as="targetPoint" />
          </mxGeometry>
        </mxCell>
        <mxCell id="vOvf09MJ9IDyiBi9rteF-6" style="edgeStyle=orthogonalEdgeStyle;html=1;labelBackgroundColor=none;startFill=0;startSize=8;endArrow=block;endFill=0;endSize=16;fontFamily=Verdana;fontSize=12;entryX=0;entryY=0.5;entryDx=0;entryDy=0;exitX=0;exitY=0;exitDx=0;exitDy=0;" edge="1" parent="1" source="l4yc9uIh_lK3EeILEZxp-40" target="L7bbQQbPtRse-n9dnxGg-22">
          <mxGeometry relative="1" as="geometry">
            <Array as="points" />
            <mxPoint x="310" y="262" as="sourcePoint" />
            <mxPoint x="310" y="90" as="targetPoint" />
          </mxGeometry>
        </mxCell>
        <mxCell id="vOvf09MJ9IDyiBi9rteF-11" value="" style="endArrow=open;endFill=1;endSize=12;html=1;rounded=0;exitX=1;exitY=0.5;exitDx=0;exitDy=0;" edge="1" parent="1" source="78961159f06e98e8-37" target="l4yc9uIh_lK3EeILEZxp-7">
          <mxGeometry width="160" relative="1" as="geometry">
            <mxPoint x="880" y="400" as="sourcePoint" />
            <mxPoint x="550" y="730" as="targetPoint" />
            <Array as="points">
              <mxPoint x="960" y="420" />
            </Array>
          </mxGeometry>
        </mxCell>
        <mxCell id="vOvf09MJ9IDyiBi9rteF-12" value="" style="endArrow=open;endFill=1;endSize=12;html=1;rounded=0;exitX=1;exitY=0.5;exitDx=0;exitDy=0;entryX=0.5;entryY=0;entryDx=0;entryDy=0;" edge="1" parent="1" source="l4yc9uIh_lK3EeILEZxp-56" target="l4yc9uIh_lK3EeILEZxp-18">
          <mxGeometry width="160" relative="1" as="geometry">
            <mxPoint x="890" y="431" as="sourcePoint" />
            <mxPoint x="970" y="730" as="targetPoint" />
            <Array as="points">
              <mxPoint x="1260" y="447" />
            </Array>
          </mxGeometry>
        </mxCell>
      </root>
    </mxGraphModel>
  </diagram>
  <diagram id="uJZJ05v_vlRMfGfPXM6m" name="UML Symbols">
    <mxGraphModel dx="2100" dy="1154" grid="1" gridSize="10" guides="1" tooltips="1" connect="1" arrows="1" fold="1" page="1" pageScale="1" pageWidth="4681" pageHeight="3300" math="0" shadow="0">
      <root>
        <mxCell id="0" />
        <mxCell id="1" parent="0" />
        <mxCell id="_Uvas-wjW_mGqL3QqT-F-1" style="edgeStyle=orthogonalEdgeStyle;html=1;labelBackgroundColor=none;startFill=0;startSize=8;endArrow=block;endFill=0;endSize=16;fontFamily=Verdana;fontSize=12;" parent="1" edge="1">
          <mxGeometry relative="1" as="geometry">
            <Array as="points">
              <mxPoint x="724.5" y="960" />
            </Array>
            <mxPoint x="724.5" y="1100" as="sourcePoint" />
            <mxPoint x="724.5" y="900" as="targetPoint" />
          </mxGeometry>
        </mxCell>
        <mxCell id="jSMXgm9BEEs8_UQQ163v-1" style="edgeStyle=elbowEdgeStyle;html=1;labelBackgroundColor=none;startFill=0;startSize=8;endArrow=open;endFill=0;endSize=16;fontFamily=Verdana;fontSize=12;elbow=vertical;dashed=1;" parent="1" edge="1">
          <mxGeometry relative="1" as="geometry">
            <mxPoint x="725" y="700" as="sourcePoint" />
            <mxPoint x="725" y="500" as="targetPoint" />
          </mxGeometry>
        </mxCell>
        <mxCell id="wVTC7m85V1P2MVxz7V_m-1" value="" style="endArrow=open;endFill=1;endSize=12;html=1;rounded=0;" parent="1" edge="1">
          <mxGeometry width="160" relative="1" as="geometry">
            <mxPoint x="1045" y="1100" as="sourcePoint" />
            <mxPoint x="1045" y="900" as="targetPoint" />
          </mxGeometry>
        </mxCell>
        <mxCell id="wVTC7m85V1P2MVxz7V_m-3" value="&lt;div style=&quot;&quot;&gt;&lt;span style=&quot;background-color: initial;&quot;&gt;&lt;b&gt;&lt;font style=&quot;font-size: 14px;&quot;&gt;Dependency&lt;/font&gt;&lt;/b&gt;&lt;/span&gt;&lt;/div&gt;&lt;div style=&quot;&quot;&gt;&lt;span style=&quot;background-color: rgb(255, 255, 255); font-family: Ubuntu, sans-serif; font-size: 13px;&quot;&gt;One class depends on another if the&lt;/span&gt;&lt;/div&gt;&lt;div style=&quot;&quot;&gt;&lt;span style=&quot;background-color: rgb(255, 255, 255); font-family: Ubuntu, sans-serif; font-size: 13px;&quot;&gt;&amp;nbsp;independent class is a parameter&amp;nbsp;&lt;/span&gt;&lt;/div&gt;&lt;div style=&quot;&quot;&gt;&lt;span style=&quot;background-color: rgb(255, 255, 255); font-family: Ubuntu, sans-serif; font-size: 13px;&quot;&gt;variable or local variable of a method of&amp;nbsp;&lt;/span&gt;&lt;/div&gt;&lt;div style=&quot;&quot;&gt;&lt;span style=&quot;background-color: rgb(255, 255, 255); font-family: Ubuntu, sans-serif; font-size: 13px;&quot;&gt;the dependent class&lt;/span&gt;&lt;/div&gt;" style="text;html=1;align=center;verticalAlign=middle;resizable=0;points=[];autosize=1;strokeColor=none;fillColor=none;" parent="1" vertex="1">
          <mxGeometry x="600" y="400" width="250" height="90" as="geometry" />
        </mxCell>
        <mxCell id="wVTC7m85V1P2MVxz7V_m-4" value="&lt;div style=&quot;&quot;&gt;&lt;font style=&quot;font-size: 14px;&quot;&gt;&lt;b&gt;Inheritance (Generalization)&lt;br style=&quot;font-family: Ubuntu, sans-serif; text-align: start; background-color: rgb(255, 255, 255);&quot;&gt;&lt;/b&gt;&lt;/font&gt;&lt;span style=&quot;font-family: Ubuntu, sans-serif; font-size: 13px; text-align: start; background-color: rgb(255, 255, 255);&quot;&gt;In Inheritance relationship a class is derived from&amp;nbsp;&lt;/span&gt;&lt;/div&gt;&lt;div style=&quot;&quot;&gt;&lt;span style=&quot;font-family: Ubuntu, sans-serif; font-size: 13px; text-align: start; background-color: rgb(255, 255, 255);&quot;&gt;another class.&lt;/span&gt;&lt;span style=&quot;background-color: rgb(255, 255, 255); font-family: Ubuntu, sans-serif; font-size: 13px; text-align: start;&quot;&gt;&amp;nbsp;It is a “is a” relationship between&amp;nbsp;&lt;/span&gt;&lt;/div&gt;&lt;div style=&quot;&quot;&gt;&lt;span style=&quot;background-color: rgb(255, 255, 255); font-family: Ubuntu, sans-serif; font-size: 13px; text-align: start;&quot;&gt;two classes.&lt;/span&gt;&lt;/div&gt;" style="text;html=1;align=center;verticalAlign=middle;resizable=0;points=[];autosize=1;strokeColor=none;fillColor=none;" parent="1" vertex="1">
          <mxGeometry x="570" y="800" width="310" height="80" as="geometry" />
        </mxCell>
        <mxCell id="wVTC7m85V1P2MVxz7V_m-6" value="&lt;b&gt;&lt;font style=&quot;font-size: 14px;&quot;&gt;Association&lt;/font&gt;&lt;/b&gt;&lt;br style=&quot;font-family: Ubuntu, sans-serif; font-size: 13px; text-align: start; background-color: rgb(255, 255, 255);&quot;&gt;&lt;span style=&quot;font-family: Ubuntu, sans-serif; font-size: 13px; text-align: start; background-color: rgb(255, 255, 255);&quot;&gt;One object is aware of another; it contains &lt;br&gt;a pointer or reference to another object.&lt;/span&gt;" style="text;html=1;align=center;verticalAlign=middle;resizable=0;points=[];autosize=1;strokeColor=none;fillColor=none;" parent="1" vertex="1">
          <mxGeometry x="905" y="800" width="270" height="60" as="geometry" />
        </mxCell>
        <mxCell id="wVTC7m85V1P2MVxz7V_m-7" value="&lt;div style=&quot;text-align: center;&quot;&gt;&lt;b style=&quot;font-size: 14px; background-color: rgb(255, 255, 255);&quot;&gt;Aggregation&lt;/b&gt;&lt;/div&gt;&lt;span style=&quot;font-style: normal; font-variant-ligatures: normal; font-variant-caps: normal; letter-spacing: normal; orphans: 2; text-indent: 0px; text-transform: none; widows: 2; word-spacing: 0px; -webkit-text-stroke-width: 0px; background-color: rgb(255, 255, 255); text-decoration-thickness: initial; text-decoration-style: initial; text-decoration-color: initial; float: none; display: inline !important;&quot;&gt;&lt;span style=&quot;font-weight: 400; font-size: 13px;&quot;&gt;Aggregation can occur when a class is a collection or container of other classes, but where the contained classes do not have a strong life cycle dependency on the container—essentially, if the container is destroyed, its contents are not. You may have confusion between aggregation and association .Association differs from aggregation only in that it does not imply any containment.&lt;/span&gt;&lt;/span&gt;" style="text;whiteSpace=wrap;html=1;" parent="1" vertex="1">
          <mxGeometry x="1235" y="400" width="560" height="100" as="geometry" />
        </mxCell>
        <mxCell id="wVTC7m85V1P2MVxz7V_m-8" style="edgeStyle=orthogonalEdgeStyle;html=1;labelBackgroundColor=none;startFill=0;startSize=8;endArrow=diamondThin;endFill=0;endSize=16;fontFamily=Verdana;fontSize=12;startArrow=none;" parent="1" edge="1">
          <mxGeometry relative="1" as="geometry">
            <Array as="points">
              <mxPoint x="1524.5" y="530" />
              <mxPoint x="1524.5" y="530" />
            </Array>
            <mxPoint x="1524.5" y="500" as="sourcePoint" />
            <mxPoint x="1524.5" y="700" as="targetPoint" />
          </mxGeometry>
        </mxCell>
        <mxCell id="wVTC7m85V1P2MVxz7V_m-9" value="&lt;div style=&quot;text-align: center;&quot;&gt;&lt;span style=&quot;background-color: rgb(255, 255, 255); font-family: Ubuntu, sans-serif; font-size: 14px;&quot;&gt;&lt;b&gt;Composition&lt;/b&gt;&lt;/span&gt;&lt;/div&gt;&lt;span style=&quot;font-family: Ubuntu, sans-serif; font-size: 13px; font-style: normal; font-variant-ligatures: normal; font-variant-caps: normal; letter-spacing: normal; orphans: 2; text-align: start; text-indent: 0px; text-transform: none; widows: 2; word-spacing: 0px; -webkit-text-stroke-width: 0px; background-color: rgb(255, 255, 255); text-decoration-thickness: initial; text-decoration-style: initial; text-decoration-color: initial; float: none; display: inline !important;&quot;&gt;&lt;div style=&quot;text-align: justify;&quot;&gt;Composition is the stronger form of aggregation. Composition can occur when a class is a collection or container of other classes, but where the contained classes have a strong life cycle dependency on the container—essentially, if the container is destroyed, its contents are also destroyed&lt;/div&gt;&lt;/span&gt;" style="text;whiteSpace=wrap;html=1;" parent="1" vertex="1">
          <mxGeometry x="1245" y="800" width="560" height="100" as="geometry" />
        </mxCell>
        <mxCell id="wVTC7m85V1P2MVxz7V_m-10" style="edgeStyle=orthogonalEdgeStyle;html=1;labelBackgroundColor=none;startFill=0;startSize=8;endArrow=diamondThin;endFill=1;endSize=16;fontFamily=Verdana;fontSize=12;startArrow=none;targetPerimeterSpacing=0;" parent="1" edge="1">
          <mxGeometry relative="1" as="geometry">
            <Array as="points">
              <mxPoint x="1524.5" y="930" />
              <mxPoint x="1524.5" y="930" />
            </Array>
            <mxPoint x="1524.5" y="900" as="sourcePoint" />
            <mxPoint x="1524.5" y="1100" as="targetPoint" />
          </mxGeometry>
        </mxCell>
        <mxCell id="wVTC7m85V1P2MVxz7V_m-11" value="&lt;p style=&quot;border: 0px; font-family: Ubuntu, sans-serif; margin: 0px 0px 1.5em; outline: 0px; padding: 0px; vertical-align: baseline; color: rgb(102, 102, 102); background-color: rgb(255, 255, 255);&quot; data-adtags-visited=&quot;true&quot;&gt;&lt;font style=&quot;font-size: 18px;&quot;&gt;&lt;b&gt;Class relationship&lt;/b&gt;&lt;/font&gt;&lt;/p&gt;&lt;p style=&quot;border: 0px; font-family: Ubuntu, sans-serif; font-size: 13px; margin: 0px 0px 1.5em; outline: 0px; padding: 0px; vertical-align: baseline; color: rgb(102, 102, 102); text-align: start; background-color: rgb(255, 255, 255);&quot; data-adtags-visited=&quot;true&quot;&gt;In a system a class may be related to different classes, following are the different relationship.&lt;/p&gt;&lt;ul style=&quot;box-sizing: border-box; border: 0px; font-family: Ubuntu, sans-serif; font-size: 13px; margin: 0px 0px 1.5em 3em; outline: 0px; padding: 0px; vertical-align: baseline; list-style-position: initial; list-style-image: initial; color: rgb(102, 102, 102); text-align: start; background-color: rgb(255, 255, 255);&quot;&gt;&lt;li style=&quot;border: 0px; font-family: inherit; font-style: inherit; font-weight: inherit; margin: 0px; outline: 0px; padding: 0px; vertical-align: baseline;&quot;&gt;Association (knows a)&lt;/li&gt;&lt;li style=&quot;border: 0px; font-family: inherit; font-style: inherit; font-weight: inherit; margin: 0px; outline: 0px; padding: 0px; vertical-align: baseline;&quot;&gt;Dependency (uses a)&lt;/li&gt;&lt;li style=&quot;border: 0px; font-family: inherit; font-style: inherit; font-weight: inherit; margin: 0px; outline: 0px; padding: 0px; vertical-align: baseline;&quot;&gt;Composition (has a)&lt;/li&gt;&lt;li style=&quot;border: 0px; font-family: inherit; font-style: inherit; font-weight: inherit; margin: 0px; outline: 0px; padding: 0px; vertical-align: baseline;&quot;&gt;Aggregation (has a)&lt;/li&gt;&lt;li style=&quot;border: 0px; font-family: inherit; font-style: inherit; font-weight: inherit; margin: 0px; outline: 0px; padding: 0px; vertical-align: baseline;&quot;&gt;&amp;nbsp;Inheritance (is a)&lt;/li&gt;&lt;li style=&quot;border: 0px; font-family: inherit; font-style: inherit; font-weight: inherit; margin: 0px; outline: 0px; padding: 0px; vertical-align: baseline;&quot;&gt;&amp;nbsp;Class template&lt;/li&gt;&lt;/ul&gt;&lt;p style=&quot;border: 0px; font-family: Ubuntu, sans-serif; font-size: 13px; margin: 0px 0px 1.5em; outline: 0px; padding: 0px; vertical-align: baseline; color: rgb(102, 102, 102); text-align: start; background-color: rgb(255, 255, 255);&quot; data-adtags-visited=&quot;true&quot;&gt;&lt;span style=&quot;border: 0px; font-family: inherit; font-style: inherit; font-weight: 700; margin: 0px; outline: 0px; padding: 0px; vertical-align: baseline;&quot;&gt;Different Multiplicity in a relation&lt;/span&gt;&lt;br&gt;“0..1” &amp;nbsp; &amp;nbsp; &amp;nbsp; &amp;nbsp; &amp;nbsp; &amp;nbsp;No instances, or one instance (optional, may)&lt;br&gt;“1” &amp;nbsp; &amp;nbsp; &amp;nbsp; &amp;nbsp; &amp;nbsp; &amp;nbsp; &amp;nbsp; &amp;nbsp; &amp;nbsp;Exactly one instance&lt;br&gt;“0..* or *” &amp;nbsp; &amp;nbsp;Zero or more instances&lt;br&gt;“1..*” &amp;nbsp; &amp;nbsp; &amp;nbsp; &amp;nbsp; &amp;nbsp; &amp;nbsp; &amp;nbsp;One or more instances (at least one)&lt;/p&gt;" style="text;html=1;align=center;verticalAlign=middle;resizable=0;points=[];autosize=1;strokeColor=none;fillColor=none;" parent="1" vertex="1">
          <mxGeometry x="790" y="35" width="560" height="300" as="geometry" />
        </mxCell>
      </root>
    </mxGraphModel>
  </diagram>
  <diagram id="NOOv1F79q6E19N8vyxOo" name="TournamentBracket">
    <mxGraphModel dx="2309" dy="1449" grid="1" gridSize="10" guides="1" tooltips="1" connect="1" arrows="1" fold="1" page="0" pageScale="1" pageWidth="4681" pageHeight="3300" math="0" shadow="0">
      <root>
        <mxCell id="0" />
        <mxCell id="1" parent="0" />
        <mxCell id="CdRTeGMsWS6jU6U3bA-B-2" value="" style="shape=table;startSize=0;container=1;collapsible=0;childLayout=tableLayout;fontSize=16;" parent="1" vertex="1">
          <mxGeometry x="-280" y="-40" width="440" height="900" as="geometry" />
        </mxCell>
        <mxCell id="CdRTeGMsWS6jU6U3bA-B-3" value="" style="shape=tableRow;horizontal=0;startSize=0;swimlaneHead=0;swimlaneBody=0;strokeColor=inherit;top=0;left=0;bottom=0;right=0;collapsible=0;dropTarget=0;fillColor=none;points=[[0,0.5],[1,0.5]];portConstraint=eastwest;fontSize=16;" parent="CdRTeGMsWS6jU6U3bA-B-2" vertex="1">
          <mxGeometry width="440" height="60" as="geometry" />
        </mxCell>
        <mxCell id="CdRTeGMsWS6jU6U3bA-B-4" value="a" style="shape=partialRectangle;html=1;whiteSpace=wrap;connectable=0;strokeColor=inherit;overflow=hidden;fillColor=none;top=0;left=0;bottom=0;right=0;pointerEvents=1;fontSize=16;" parent="CdRTeGMsWS6jU6U3bA-B-3" vertex="1">
          <mxGeometry width="88" height="60" as="geometry">
            <mxRectangle width="88" height="60" as="alternateBounds" />
          </mxGeometry>
        </mxCell>
        <mxCell id="CdRTeGMsWS6jU6U3bA-B-5" value="" style="shape=partialRectangle;html=1;whiteSpace=wrap;connectable=0;strokeColor=inherit;overflow=hidden;fillColor=none;top=0;left=0;bottom=0;right=0;pointerEvents=1;fontSize=16;" parent="CdRTeGMsWS6jU6U3bA-B-3" vertex="1">
          <mxGeometry x="88" width="88" height="60" as="geometry">
            <mxRectangle width="88" height="60" as="alternateBounds" />
          </mxGeometry>
        </mxCell>
        <mxCell id="CdRTeGMsWS6jU6U3bA-B-6" value="" style="shape=partialRectangle;html=1;whiteSpace=wrap;connectable=0;strokeColor=inherit;overflow=hidden;fillColor=none;top=0;left=0;bottom=0;right=0;pointerEvents=1;fontSize=16;" parent="CdRTeGMsWS6jU6U3bA-B-3" vertex="1">
          <mxGeometry x="176" width="88" height="60" as="geometry">
            <mxRectangle width="88" height="60" as="alternateBounds" />
          </mxGeometry>
        </mxCell>
        <mxCell id="CdRTeGMsWS6jU6U3bA-B-7" value="" style="shape=partialRectangle;html=1;whiteSpace=wrap;connectable=0;strokeColor=inherit;overflow=hidden;fillColor=none;top=0;left=0;bottom=0;right=0;pointerEvents=1;fontSize=16;" parent="CdRTeGMsWS6jU6U3bA-B-3" vertex="1">
          <mxGeometry x="264" width="88" height="60" as="geometry">
            <mxRectangle width="88" height="60" as="alternateBounds" />
          </mxGeometry>
        </mxCell>
        <mxCell id="CdRTeGMsWS6jU6U3bA-B-271" style="shape=partialRectangle;html=1;whiteSpace=wrap;connectable=0;strokeColor=inherit;overflow=hidden;fillColor=none;top=0;left=0;bottom=0;right=0;pointerEvents=1;fontSize=16;" parent="CdRTeGMsWS6jU6U3bA-B-3" vertex="1">
          <mxGeometry x="352" width="88" height="60" as="geometry">
            <mxRectangle width="88" height="60" as="alternateBounds" />
          </mxGeometry>
        </mxCell>
        <mxCell id="CdRTeGMsWS6jU6U3bA-B-14" value="" style="shape=tableRow;horizontal=0;startSize=0;swimlaneHead=0;swimlaneBody=0;strokeColor=inherit;top=0;left=0;bottom=0;right=0;collapsible=0;dropTarget=0;fillColor=none;points=[[0,0.5],[1,0.5]];portConstraint=eastwest;fontSize=16;" parent="CdRTeGMsWS6jU6U3bA-B-2" vertex="1">
          <mxGeometry y="60" width="440" height="60" as="geometry" />
        </mxCell>
        <mxCell id="CdRTeGMsWS6jU6U3bA-B-15" value="" style="shape=partialRectangle;html=1;whiteSpace=wrap;connectable=0;strokeColor=inherit;overflow=hidden;fillColor=none;top=0;left=0;bottom=0;right=0;pointerEvents=1;fontSize=16;" parent="CdRTeGMsWS6jU6U3bA-B-14" vertex="1">
          <mxGeometry width="88" height="60" as="geometry">
            <mxRectangle width="88" height="60" as="alternateBounds" />
          </mxGeometry>
        </mxCell>
        <mxCell id="CdRTeGMsWS6jU6U3bA-B-16" value="a" style="shape=partialRectangle;html=1;whiteSpace=wrap;connectable=0;strokeColor=inherit;overflow=hidden;fillColor=none;top=0;left=0;bottom=0;right=0;pointerEvents=1;fontSize=16;" parent="CdRTeGMsWS6jU6U3bA-B-14" vertex="1">
          <mxGeometry x="88" width="88" height="60" as="geometry">
            <mxRectangle width="88" height="60" as="alternateBounds" />
          </mxGeometry>
        </mxCell>
        <mxCell id="CdRTeGMsWS6jU6U3bA-B-17" value="" style="shape=partialRectangle;html=1;whiteSpace=wrap;connectable=0;strokeColor=inherit;overflow=hidden;fillColor=none;top=0;left=0;bottom=0;right=0;pointerEvents=1;fontSize=16;" parent="CdRTeGMsWS6jU6U3bA-B-14" vertex="1">
          <mxGeometry x="176" width="88" height="60" as="geometry">
            <mxRectangle width="88" height="60" as="alternateBounds" />
          </mxGeometry>
        </mxCell>
        <mxCell id="CdRTeGMsWS6jU6U3bA-B-18" value="" style="shape=partialRectangle;html=1;whiteSpace=wrap;connectable=0;strokeColor=inherit;overflow=hidden;fillColor=none;top=0;left=0;bottom=0;right=0;pointerEvents=1;fontSize=16;" parent="CdRTeGMsWS6jU6U3bA-B-14" vertex="1">
          <mxGeometry x="264" width="88" height="60" as="geometry">
            <mxRectangle width="88" height="60" as="alternateBounds" />
          </mxGeometry>
        </mxCell>
        <mxCell id="CdRTeGMsWS6jU6U3bA-B-272" style="shape=partialRectangle;html=1;whiteSpace=wrap;connectable=0;strokeColor=inherit;overflow=hidden;fillColor=none;top=0;left=0;bottom=0;right=0;pointerEvents=1;fontSize=16;" parent="CdRTeGMsWS6jU6U3bA-B-14" vertex="1">
          <mxGeometry x="352" width="88" height="60" as="geometry">
            <mxRectangle width="88" height="60" as="alternateBounds" />
          </mxGeometry>
        </mxCell>
        <mxCell id="CdRTeGMsWS6jU6U3bA-B-25" value="" style="shape=tableRow;horizontal=0;startSize=0;swimlaneHead=0;swimlaneBody=0;strokeColor=inherit;top=0;left=0;bottom=0;right=0;collapsible=0;dropTarget=0;fillColor=none;points=[[0,0.5],[1,0.5]];portConstraint=eastwest;fontSize=16;" parent="CdRTeGMsWS6jU6U3bA-B-2" vertex="1">
          <mxGeometry y="120" width="440" height="60" as="geometry" />
        </mxCell>
        <mxCell id="CdRTeGMsWS6jU6U3bA-B-26" value="b" style="shape=partialRectangle;html=1;whiteSpace=wrap;connectable=0;strokeColor=inherit;overflow=hidden;fillColor=none;top=0;left=0;bottom=0;right=0;pointerEvents=1;fontSize=16;" parent="CdRTeGMsWS6jU6U3bA-B-25" vertex="1">
          <mxGeometry width="88" height="60" as="geometry">
            <mxRectangle width="88" height="60" as="alternateBounds" />
          </mxGeometry>
        </mxCell>
        <mxCell id="CdRTeGMsWS6jU6U3bA-B-27" value="" style="shape=partialRectangle;html=1;whiteSpace=wrap;connectable=0;strokeColor=inherit;overflow=hidden;fillColor=none;top=0;left=0;bottom=0;right=0;pointerEvents=1;fontSize=16;" parent="CdRTeGMsWS6jU6U3bA-B-25" vertex="1">
          <mxGeometry x="88" width="88" height="60" as="geometry">
            <mxRectangle width="88" height="60" as="alternateBounds" />
          </mxGeometry>
        </mxCell>
        <mxCell id="CdRTeGMsWS6jU6U3bA-B-28" value="" style="shape=partialRectangle;html=1;whiteSpace=wrap;connectable=0;strokeColor=inherit;overflow=hidden;fillColor=none;top=0;left=0;bottom=0;right=0;pointerEvents=1;fontSize=16;" parent="CdRTeGMsWS6jU6U3bA-B-25" vertex="1">
          <mxGeometry x="176" width="88" height="60" as="geometry">
            <mxRectangle width="88" height="60" as="alternateBounds" />
          </mxGeometry>
        </mxCell>
        <mxCell id="CdRTeGMsWS6jU6U3bA-B-29" value="" style="shape=partialRectangle;html=1;whiteSpace=wrap;connectable=0;strokeColor=inherit;overflow=hidden;fillColor=none;top=0;left=0;bottom=0;right=0;pointerEvents=1;fontSize=16;" parent="CdRTeGMsWS6jU6U3bA-B-25" vertex="1">
          <mxGeometry x="264" width="88" height="60" as="geometry">
            <mxRectangle width="88" height="60" as="alternateBounds" />
          </mxGeometry>
        </mxCell>
        <mxCell id="CdRTeGMsWS6jU6U3bA-B-273" style="shape=partialRectangle;html=1;whiteSpace=wrap;connectable=0;strokeColor=inherit;overflow=hidden;fillColor=none;top=0;left=0;bottom=0;right=0;pointerEvents=1;fontSize=16;" parent="CdRTeGMsWS6jU6U3bA-B-25" vertex="1">
          <mxGeometry x="352" width="88" height="60" as="geometry">
            <mxRectangle width="88" height="60" as="alternateBounds" />
          </mxGeometry>
        </mxCell>
        <mxCell id="CdRTeGMsWS6jU6U3bA-B-36" value="" style="shape=tableRow;horizontal=0;startSize=0;swimlaneHead=0;swimlaneBody=0;strokeColor=inherit;top=0;left=0;bottom=0;right=0;collapsible=0;dropTarget=0;fillColor=none;points=[[0,0.5],[1,0.5]];portConstraint=eastwest;fontSize=16;" parent="CdRTeGMsWS6jU6U3bA-B-2" vertex="1">
          <mxGeometry y="180" width="440" height="60" as="geometry" />
        </mxCell>
        <mxCell id="CdRTeGMsWS6jU6U3bA-B-37" value="" style="shape=partialRectangle;html=1;whiteSpace=wrap;connectable=0;strokeColor=inherit;overflow=hidden;fillColor=none;top=0;left=0;bottom=0;right=0;pointerEvents=1;fontSize=16;" parent="CdRTeGMsWS6jU6U3bA-B-36" vertex="1">
          <mxGeometry width="88" height="60" as="geometry">
            <mxRectangle width="88" height="60" as="alternateBounds" />
          </mxGeometry>
        </mxCell>
        <mxCell id="CdRTeGMsWS6jU6U3bA-B-38" value="" style="shape=partialRectangle;html=1;whiteSpace=wrap;connectable=0;strokeColor=inherit;overflow=hidden;fillColor=none;top=0;left=0;bottom=0;right=0;pointerEvents=1;fontSize=16;" parent="CdRTeGMsWS6jU6U3bA-B-36" vertex="1">
          <mxGeometry x="88" width="88" height="60" as="geometry">
            <mxRectangle width="88" height="60" as="alternateBounds" />
          </mxGeometry>
        </mxCell>
        <mxCell id="CdRTeGMsWS6jU6U3bA-B-39" value="a" style="shape=partialRectangle;html=1;whiteSpace=wrap;connectable=0;strokeColor=inherit;overflow=hidden;fillColor=none;top=0;left=0;bottom=0;right=0;pointerEvents=1;fontSize=16;" parent="CdRTeGMsWS6jU6U3bA-B-36" vertex="1">
          <mxGeometry x="176" width="88" height="60" as="geometry">
            <mxRectangle width="88" height="60" as="alternateBounds" />
          </mxGeometry>
        </mxCell>
        <mxCell id="CdRTeGMsWS6jU6U3bA-B-40" value="" style="shape=partialRectangle;html=1;whiteSpace=wrap;connectable=0;strokeColor=inherit;overflow=hidden;fillColor=none;top=0;left=0;bottom=0;right=0;pointerEvents=1;fontSize=16;" parent="CdRTeGMsWS6jU6U3bA-B-36" vertex="1">
          <mxGeometry x="264" width="88" height="60" as="geometry">
            <mxRectangle width="88" height="60" as="alternateBounds" />
          </mxGeometry>
        </mxCell>
        <mxCell id="CdRTeGMsWS6jU6U3bA-B-274" style="shape=partialRectangle;html=1;whiteSpace=wrap;connectable=0;strokeColor=inherit;overflow=hidden;fillColor=none;top=0;left=0;bottom=0;right=0;pointerEvents=1;fontSize=16;" parent="CdRTeGMsWS6jU6U3bA-B-36" vertex="1">
          <mxGeometry x="352" width="88" height="60" as="geometry">
            <mxRectangle width="88" height="60" as="alternateBounds" />
          </mxGeometry>
        </mxCell>
        <mxCell id="CdRTeGMsWS6jU6U3bA-B-47" value="" style="shape=tableRow;horizontal=0;startSize=0;swimlaneHead=0;swimlaneBody=0;strokeColor=inherit;top=0;left=0;bottom=0;right=0;collapsible=0;dropTarget=0;fillColor=none;points=[[0,0.5],[1,0.5]];portConstraint=eastwest;fontSize=16;" parent="CdRTeGMsWS6jU6U3bA-B-2" vertex="1">
          <mxGeometry y="240" width="440" height="60" as="geometry" />
        </mxCell>
        <mxCell id="CdRTeGMsWS6jU6U3bA-B-48" value="c" style="shape=partialRectangle;html=1;whiteSpace=wrap;connectable=0;strokeColor=inherit;overflow=hidden;fillColor=none;top=0;left=0;bottom=0;right=0;pointerEvents=1;fontSize=16;" parent="CdRTeGMsWS6jU6U3bA-B-47" vertex="1">
          <mxGeometry width="88" height="60" as="geometry">
            <mxRectangle width="88" height="60" as="alternateBounds" />
          </mxGeometry>
        </mxCell>
        <mxCell id="CdRTeGMsWS6jU6U3bA-B-49" value="" style="shape=partialRectangle;html=1;whiteSpace=wrap;connectable=0;strokeColor=inherit;overflow=hidden;fillColor=none;top=0;left=0;bottom=0;right=0;pointerEvents=1;fontSize=16;" parent="CdRTeGMsWS6jU6U3bA-B-47" vertex="1">
          <mxGeometry x="88" width="88" height="60" as="geometry">
            <mxRectangle width="88" height="60" as="alternateBounds" />
          </mxGeometry>
        </mxCell>
        <mxCell id="CdRTeGMsWS6jU6U3bA-B-50" value="" style="shape=partialRectangle;html=1;whiteSpace=wrap;connectable=0;strokeColor=inherit;overflow=hidden;fillColor=none;top=0;left=0;bottom=0;right=0;pointerEvents=1;fontSize=16;" parent="CdRTeGMsWS6jU6U3bA-B-47" vertex="1">
          <mxGeometry x="176" width="88" height="60" as="geometry">
            <mxRectangle width="88" height="60" as="alternateBounds" />
          </mxGeometry>
        </mxCell>
        <mxCell id="CdRTeGMsWS6jU6U3bA-B-51" value="" style="shape=partialRectangle;html=1;whiteSpace=wrap;connectable=0;strokeColor=inherit;overflow=hidden;fillColor=none;top=0;left=0;bottom=0;right=0;pointerEvents=1;fontSize=16;" parent="CdRTeGMsWS6jU6U3bA-B-47" vertex="1">
          <mxGeometry x="264" width="88" height="60" as="geometry">
            <mxRectangle width="88" height="60" as="alternateBounds" />
          </mxGeometry>
        </mxCell>
        <mxCell id="CdRTeGMsWS6jU6U3bA-B-275" style="shape=partialRectangle;html=1;whiteSpace=wrap;connectable=0;strokeColor=inherit;overflow=hidden;fillColor=none;top=0;left=0;bottom=0;right=0;pointerEvents=1;fontSize=16;" parent="CdRTeGMsWS6jU6U3bA-B-47" vertex="1">
          <mxGeometry x="352" width="88" height="60" as="geometry">
            <mxRectangle width="88" height="60" as="alternateBounds" />
          </mxGeometry>
        </mxCell>
        <mxCell id="CdRTeGMsWS6jU6U3bA-B-58" value="" style="shape=tableRow;horizontal=0;startSize=0;swimlaneHead=0;swimlaneBody=0;strokeColor=inherit;top=0;left=0;bottom=0;right=0;collapsible=0;dropTarget=0;fillColor=none;points=[[0,0.5],[1,0.5]];portConstraint=eastwest;fontSize=16;" parent="CdRTeGMsWS6jU6U3bA-B-2" vertex="1">
          <mxGeometry y="300" width="440" height="60" as="geometry" />
        </mxCell>
        <mxCell id="CdRTeGMsWS6jU6U3bA-B-59" value="" style="shape=partialRectangle;html=1;whiteSpace=wrap;connectable=0;strokeColor=inherit;overflow=hidden;fillColor=none;top=0;left=0;bottom=0;right=0;pointerEvents=1;fontSize=16;" parent="CdRTeGMsWS6jU6U3bA-B-58" vertex="1">
          <mxGeometry width="88" height="60" as="geometry">
            <mxRectangle width="88" height="60" as="alternateBounds" />
          </mxGeometry>
        </mxCell>
        <mxCell id="CdRTeGMsWS6jU6U3bA-B-60" value="b" style="shape=partialRectangle;html=1;whiteSpace=wrap;connectable=0;strokeColor=inherit;overflow=hidden;fillColor=none;top=0;left=0;bottom=0;right=0;pointerEvents=1;fontSize=16;" parent="CdRTeGMsWS6jU6U3bA-B-58" vertex="1">
          <mxGeometry x="88" width="88" height="60" as="geometry">
            <mxRectangle width="88" height="60" as="alternateBounds" />
          </mxGeometry>
        </mxCell>
        <mxCell id="CdRTeGMsWS6jU6U3bA-B-61" value="" style="shape=partialRectangle;html=1;whiteSpace=wrap;connectable=0;strokeColor=inherit;overflow=hidden;fillColor=none;top=0;left=0;bottom=0;right=0;pointerEvents=1;fontSize=16;" parent="CdRTeGMsWS6jU6U3bA-B-58" vertex="1">
          <mxGeometry x="176" width="88" height="60" as="geometry">
            <mxRectangle width="88" height="60" as="alternateBounds" />
          </mxGeometry>
        </mxCell>
        <mxCell id="CdRTeGMsWS6jU6U3bA-B-62" value="" style="shape=partialRectangle;html=1;whiteSpace=wrap;connectable=0;strokeColor=inherit;overflow=hidden;fillColor=none;top=0;left=0;bottom=0;right=0;pointerEvents=1;fontSize=16;" parent="CdRTeGMsWS6jU6U3bA-B-58" vertex="1">
          <mxGeometry x="264" width="88" height="60" as="geometry">
            <mxRectangle width="88" height="60" as="alternateBounds" />
          </mxGeometry>
        </mxCell>
        <mxCell id="CdRTeGMsWS6jU6U3bA-B-276" style="shape=partialRectangle;html=1;whiteSpace=wrap;connectable=0;strokeColor=inherit;overflow=hidden;fillColor=none;top=0;left=0;bottom=0;right=0;pointerEvents=1;fontSize=16;" parent="CdRTeGMsWS6jU6U3bA-B-58" vertex="1">
          <mxGeometry x="352" width="88" height="60" as="geometry">
            <mxRectangle width="88" height="60" as="alternateBounds" />
          </mxGeometry>
        </mxCell>
        <mxCell id="CdRTeGMsWS6jU6U3bA-B-69" value="" style="shape=tableRow;horizontal=0;startSize=0;swimlaneHead=0;swimlaneBody=0;strokeColor=inherit;top=0;left=0;bottom=0;right=0;collapsible=0;dropTarget=0;fillColor=none;points=[[0,0.5],[1,0.5]];portConstraint=eastwest;fontSize=16;" parent="CdRTeGMsWS6jU6U3bA-B-2" vertex="1">
          <mxGeometry y="360" width="440" height="60" as="geometry" />
        </mxCell>
        <mxCell id="CdRTeGMsWS6jU6U3bA-B-70" value="d" style="shape=partialRectangle;html=1;whiteSpace=wrap;connectable=0;strokeColor=inherit;overflow=hidden;fillColor=none;top=0;left=0;bottom=0;right=0;pointerEvents=1;fontSize=16;" parent="CdRTeGMsWS6jU6U3bA-B-69" vertex="1">
          <mxGeometry width="88" height="60" as="geometry">
            <mxRectangle width="88" height="60" as="alternateBounds" />
          </mxGeometry>
        </mxCell>
        <mxCell id="CdRTeGMsWS6jU6U3bA-B-71" value="" style="shape=partialRectangle;html=1;whiteSpace=wrap;connectable=0;strokeColor=inherit;overflow=hidden;fillColor=none;top=0;left=0;bottom=0;right=0;pointerEvents=1;fontSize=16;" parent="CdRTeGMsWS6jU6U3bA-B-69" vertex="1">
          <mxGeometry x="88" width="88" height="60" as="geometry">
            <mxRectangle width="88" height="60" as="alternateBounds" />
          </mxGeometry>
        </mxCell>
        <mxCell id="CdRTeGMsWS6jU6U3bA-B-72" value="" style="shape=partialRectangle;html=1;whiteSpace=wrap;connectable=0;strokeColor=inherit;overflow=hidden;fillColor=none;top=0;left=0;bottom=0;right=0;pointerEvents=1;fontSize=16;" parent="CdRTeGMsWS6jU6U3bA-B-69" vertex="1">
          <mxGeometry x="176" width="88" height="60" as="geometry">
            <mxRectangle width="88" height="60" as="alternateBounds" />
          </mxGeometry>
        </mxCell>
        <mxCell id="CdRTeGMsWS6jU6U3bA-B-73" value="" style="shape=partialRectangle;html=1;whiteSpace=wrap;connectable=0;strokeColor=inherit;overflow=hidden;fillColor=none;top=0;left=0;bottom=0;right=0;pointerEvents=1;fontSize=16;" parent="CdRTeGMsWS6jU6U3bA-B-69" vertex="1">
          <mxGeometry x="264" width="88" height="60" as="geometry">
            <mxRectangle width="88" height="60" as="alternateBounds" />
          </mxGeometry>
        </mxCell>
        <mxCell id="CdRTeGMsWS6jU6U3bA-B-277" style="shape=partialRectangle;html=1;whiteSpace=wrap;connectable=0;strokeColor=inherit;overflow=hidden;fillColor=none;top=0;left=0;bottom=0;right=0;pointerEvents=1;fontSize=16;" parent="CdRTeGMsWS6jU6U3bA-B-69" vertex="1">
          <mxGeometry x="352" width="88" height="60" as="geometry">
            <mxRectangle width="88" height="60" as="alternateBounds" />
          </mxGeometry>
        </mxCell>
        <mxCell id="CdRTeGMsWS6jU6U3bA-B-80" value="" style="shape=tableRow;horizontal=0;startSize=0;swimlaneHead=0;swimlaneBody=0;strokeColor=inherit;top=0;left=0;bottom=0;right=0;collapsible=0;dropTarget=0;fillColor=none;points=[[0,0.5],[1,0.5]];portConstraint=eastwest;fontSize=16;" parent="CdRTeGMsWS6jU6U3bA-B-2" vertex="1">
          <mxGeometry y="420" width="440" height="60" as="geometry" />
        </mxCell>
        <mxCell id="CdRTeGMsWS6jU6U3bA-B-81" value="" style="shape=partialRectangle;html=1;whiteSpace=wrap;connectable=0;strokeColor=inherit;overflow=hidden;fillColor=none;top=0;left=0;bottom=0;right=0;pointerEvents=1;fontSize=16;" parent="CdRTeGMsWS6jU6U3bA-B-80" vertex="1">
          <mxGeometry width="88" height="60" as="geometry">
            <mxRectangle width="88" height="60" as="alternateBounds" />
          </mxGeometry>
        </mxCell>
        <mxCell id="CdRTeGMsWS6jU6U3bA-B-82" value="" style="shape=partialRectangle;html=1;whiteSpace=wrap;connectable=0;strokeColor=inherit;overflow=hidden;fillColor=none;top=0;left=0;bottom=0;right=0;pointerEvents=1;fontSize=16;" parent="CdRTeGMsWS6jU6U3bA-B-80" vertex="1">
          <mxGeometry x="88" width="88" height="60" as="geometry">
            <mxRectangle width="88" height="60" as="alternateBounds" />
          </mxGeometry>
        </mxCell>
        <mxCell id="CdRTeGMsWS6jU6U3bA-B-83" value="" style="shape=partialRectangle;html=1;whiteSpace=wrap;connectable=0;strokeColor=inherit;overflow=hidden;fillColor=none;top=0;left=0;bottom=0;right=0;pointerEvents=1;fontSize=16;" parent="CdRTeGMsWS6jU6U3bA-B-80" vertex="1">
          <mxGeometry x="176" width="88" height="60" as="geometry">
            <mxRectangle width="88" height="60" as="alternateBounds" />
          </mxGeometry>
        </mxCell>
        <mxCell id="CdRTeGMsWS6jU6U3bA-B-84" value="F" style="shape=partialRectangle;html=1;whiteSpace=wrap;connectable=0;strokeColor=inherit;overflow=hidden;fillColor=none;top=0;left=0;bottom=0;right=0;pointerEvents=1;fontSize=16;" parent="CdRTeGMsWS6jU6U3bA-B-80" vertex="1">
          <mxGeometry x="264" width="88" height="60" as="geometry">
            <mxRectangle width="88" height="60" as="alternateBounds" />
          </mxGeometry>
        </mxCell>
        <mxCell id="CdRTeGMsWS6jU6U3bA-B-278" style="shape=partialRectangle;html=1;whiteSpace=wrap;connectable=0;strokeColor=inherit;overflow=hidden;fillColor=none;top=0;left=0;bottom=0;right=0;pointerEvents=1;fontSize=16;" parent="CdRTeGMsWS6jU6U3bA-B-80" vertex="1">
          <mxGeometry x="352" width="88" height="60" as="geometry">
            <mxRectangle width="88" height="60" as="alternateBounds" />
          </mxGeometry>
        </mxCell>
        <mxCell id="CdRTeGMsWS6jU6U3bA-B-91" value="" style="shape=tableRow;horizontal=0;startSize=0;swimlaneHead=0;swimlaneBody=0;strokeColor=inherit;top=0;left=0;bottom=0;right=0;collapsible=0;dropTarget=0;fillColor=none;points=[[0,0.5],[1,0.5]];portConstraint=eastwest;fontSize=16;" parent="CdRTeGMsWS6jU6U3bA-B-2" vertex="1">
          <mxGeometry y="480" width="440" height="60" as="geometry" />
        </mxCell>
        <mxCell id="CdRTeGMsWS6jU6U3bA-B-92" value="e" style="shape=partialRectangle;html=1;whiteSpace=wrap;connectable=0;strokeColor=inherit;overflow=hidden;fillColor=none;top=0;left=0;bottom=0;right=0;pointerEvents=1;fontSize=16;" parent="CdRTeGMsWS6jU6U3bA-B-91" vertex="1">
          <mxGeometry width="88" height="60" as="geometry">
            <mxRectangle width="88" height="60" as="alternateBounds" />
          </mxGeometry>
        </mxCell>
        <mxCell id="CdRTeGMsWS6jU6U3bA-B-93" value="" style="shape=partialRectangle;html=1;whiteSpace=wrap;connectable=0;strokeColor=inherit;overflow=hidden;fillColor=none;top=0;left=0;bottom=0;right=0;pointerEvents=1;fontSize=16;" parent="CdRTeGMsWS6jU6U3bA-B-91" vertex="1">
          <mxGeometry x="88" width="88" height="60" as="geometry">
            <mxRectangle width="88" height="60" as="alternateBounds" />
          </mxGeometry>
        </mxCell>
        <mxCell id="CdRTeGMsWS6jU6U3bA-B-94" value="" style="shape=partialRectangle;html=1;whiteSpace=wrap;connectable=0;strokeColor=inherit;overflow=hidden;fillColor=none;top=0;left=0;bottom=0;right=0;pointerEvents=1;fontSize=16;" parent="CdRTeGMsWS6jU6U3bA-B-91" vertex="1">
          <mxGeometry x="176" width="88" height="60" as="geometry">
            <mxRectangle width="88" height="60" as="alternateBounds" />
          </mxGeometry>
        </mxCell>
        <mxCell id="CdRTeGMsWS6jU6U3bA-B-95" value="" style="shape=partialRectangle;html=1;whiteSpace=wrap;connectable=0;strokeColor=inherit;overflow=hidden;fillColor=none;top=0;left=0;bottom=0;right=0;pointerEvents=1;fontSize=16;" parent="CdRTeGMsWS6jU6U3bA-B-91" vertex="1">
          <mxGeometry x="264" width="88" height="60" as="geometry">
            <mxRectangle width="88" height="60" as="alternateBounds" />
          </mxGeometry>
        </mxCell>
        <mxCell id="CdRTeGMsWS6jU6U3bA-B-279" style="shape=partialRectangle;html=1;whiteSpace=wrap;connectable=0;strokeColor=inherit;overflow=hidden;fillColor=none;top=0;left=0;bottom=0;right=0;pointerEvents=1;fontSize=16;" parent="CdRTeGMsWS6jU6U3bA-B-91" vertex="1">
          <mxGeometry x="352" width="88" height="60" as="geometry">
            <mxRectangle width="88" height="60" as="alternateBounds" />
          </mxGeometry>
        </mxCell>
        <mxCell id="CdRTeGMsWS6jU6U3bA-B-135" style="shape=tableRow;horizontal=0;startSize=0;swimlaneHead=0;swimlaneBody=0;strokeColor=inherit;top=0;left=0;bottom=0;right=0;collapsible=0;dropTarget=0;fillColor=none;points=[[0,0.5],[1,0.5]];portConstraint=eastwest;fontSize=16;" parent="CdRTeGMsWS6jU6U3bA-B-2" vertex="1">
          <mxGeometry y="540" width="440" height="60" as="geometry" />
        </mxCell>
        <mxCell id="CdRTeGMsWS6jU6U3bA-B-136" style="shape=partialRectangle;html=1;whiteSpace=wrap;connectable=0;strokeColor=inherit;overflow=hidden;fillColor=none;top=0;left=0;bottom=0;right=0;pointerEvents=1;fontSize=16;" parent="CdRTeGMsWS6jU6U3bA-B-135" vertex="1">
          <mxGeometry width="88" height="60" as="geometry">
            <mxRectangle width="88" height="60" as="alternateBounds" />
          </mxGeometry>
        </mxCell>
        <mxCell id="CdRTeGMsWS6jU6U3bA-B-137" value="c" style="shape=partialRectangle;html=1;whiteSpace=wrap;connectable=0;strokeColor=inherit;overflow=hidden;fillColor=none;top=0;left=0;bottom=0;right=0;pointerEvents=1;fontSize=16;" parent="CdRTeGMsWS6jU6U3bA-B-135" vertex="1">
          <mxGeometry x="88" width="88" height="60" as="geometry">
            <mxRectangle width="88" height="60" as="alternateBounds" />
          </mxGeometry>
        </mxCell>
        <mxCell id="CdRTeGMsWS6jU6U3bA-B-138" style="shape=partialRectangle;html=1;whiteSpace=wrap;connectable=0;strokeColor=inherit;overflow=hidden;fillColor=none;top=0;left=0;bottom=0;right=0;pointerEvents=1;fontSize=16;" parent="CdRTeGMsWS6jU6U3bA-B-135" vertex="1">
          <mxGeometry x="176" width="88" height="60" as="geometry">
            <mxRectangle width="88" height="60" as="alternateBounds" />
          </mxGeometry>
        </mxCell>
        <mxCell id="CdRTeGMsWS6jU6U3bA-B-139" style="shape=partialRectangle;html=1;whiteSpace=wrap;connectable=0;strokeColor=inherit;overflow=hidden;fillColor=none;top=0;left=0;bottom=0;right=0;pointerEvents=1;fontSize=16;" parent="CdRTeGMsWS6jU6U3bA-B-135" vertex="1">
          <mxGeometry x="264" width="88" height="60" as="geometry">
            <mxRectangle width="88" height="60" as="alternateBounds" />
          </mxGeometry>
        </mxCell>
        <mxCell id="CdRTeGMsWS6jU6U3bA-B-280" style="shape=partialRectangle;html=1;whiteSpace=wrap;connectable=0;strokeColor=inherit;overflow=hidden;fillColor=none;top=0;left=0;bottom=0;right=0;pointerEvents=1;fontSize=16;" parent="CdRTeGMsWS6jU6U3bA-B-135" vertex="1">
          <mxGeometry x="352" width="88" height="60" as="geometry">
            <mxRectangle width="88" height="60" as="alternateBounds" />
          </mxGeometry>
        </mxCell>
        <mxCell id="CdRTeGMsWS6jU6U3bA-B-124" style="shape=tableRow;horizontal=0;startSize=0;swimlaneHead=0;swimlaneBody=0;strokeColor=inherit;top=0;left=0;bottom=0;right=0;collapsible=0;dropTarget=0;fillColor=none;points=[[0,0.5],[1,0.5]];portConstraint=eastwest;fontSize=16;" parent="CdRTeGMsWS6jU6U3bA-B-2" vertex="1">
          <mxGeometry y="600" width="440" height="60" as="geometry" />
        </mxCell>
        <mxCell id="CdRTeGMsWS6jU6U3bA-B-125" value="f" style="shape=partialRectangle;html=1;whiteSpace=wrap;connectable=0;strokeColor=inherit;overflow=hidden;fillColor=none;top=0;left=0;bottom=0;right=0;pointerEvents=1;fontSize=16;" parent="CdRTeGMsWS6jU6U3bA-B-124" vertex="1">
          <mxGeometry width="88" height="60" as="geometry">
            <mxRectangle width="88" height="60" as="alternateBounds" />
          </mxGeometry>
        </mxCell>
        <mxCell id="CdRTeGMsWS6jU6U3bA-B-126" style="shape=partialRectangle;html=1;whiteSpace=wrap;connectable=0;strokeColor=inherit;overflow=hidden;fillColor=none;top=0;left=0;bottom=0;right=0;pointerEvents=1;fontSize=16;" parent="CdRTeGMsWS6jU6U3bA-B-124" vertex="1">
          <mxGeometry x="88" width="88" height="60" as="geometry">
            <mxRectangle width="88" height="60" as="alternateBounds" />
          </mxGeometry>
        </mxCell>
        <mxCell id="CdRTeGMsWS6jU6U3bA-B-127" style="shape=partialRectangle;html=1;whiteSpace=wrap;connectable=0;strokeColor=inherit;overflow=hidden;fillColor=none;top=0;left=0;bottom=0;right=0;pointerEvents=1;fontSize=16;" parent="CdRTeGMsWS6jU6U3bA-B-124" vertex="1">
          <mxGeometry x="176" width="88" height="60" as="geometry">
            <mxRectangle width="88" height="60" as="alternateBounds" />
          </mxGeometry>
        </mxCell>
        <mxCell id="CdRTeGMsWS6jU6U3bA-B-128" style="shape=partialRectangle;html=1;whiteSpace=wrap;connectable=0;strokeColor=inherit;overflow=hidden;fillColor=none;top=0;left=0;bottom=0;right=0;pointerEvents=1;fontSize=16;" parent="CdRTeGMsWS6jU6U3bA-B-124" vertex="1">
          <mxGeometry x="264" width="88" height="60" as="geometry">
            <mxRectangle width="88" height="60" as="alternateBounds" />
          </mxGeometry>
        </mxCell>
        <mxCell id="CdRTeGMsWS6jU6U3bA-B-281" style="shape=partialRectangle;html=1;whiteSpace=wrap;connectable=0;strokeColor=inherit;overflow=hidden;fillColor=none;top=0;left=0;bottom=0;right=0;pointerEvents=1;fontSize=16;" parent="CdRTeGMsWS6jU6U3bA-B-124" vertex="1">
          <mxGeometry x="352" width="88" height="60" as="geometry">
            <mxRectangle width="88" height="60" as="alternateBounds" />
          </mxGeometry>
        </mxCell>
        <mxCell id="CdRTeGMsWS6jU6U3bA-B-179" style="shape=tableRow;horizontal=0;startSize=0;swimlaneHead=0;swimlaneBody=0;strokeColor=inherit;top=0;left=0;bottom=0;right=0;collapsible=0;dropTarget=0;fillColor=none;points=[[0,0.5],[1,0.5]];portConstraint=eastwest;fontSize=16;" parent="CdRTeGMsWS6jU6U3bA-B-2" vertex="1">
          <mxGeometry y="660" width="440" height="60" as="geometry" />
        </mxCell>
        <mxCell id="CdRTeGMsWS6jU6U3bA-B-180" style="shape=partialRectangle;html=1;whiteSpace=wrap;connectable=0;strokeColor=inherit;overflow=hidden;fillColor=none;top=0;left=0;bottom=0;right=0;pointerEvents=1;fontSize=16;" parent="CdRTeGMsWS6jU6U3bA-B-179" vertex="1">
          <mxGeometry width="88" height="60" as="geometry">
            <mxRectangle width="88" height="60" as="alternateBounds" />
          </mxGeometry>
        </mxCell>
        <mxCell id="CdRTeGMsWS6jU6U3bA-B-181" style="shape=partialRectangle;html=1;whiteSpace=wrap;connectable=0;strokeColor=inherit;overflow=hidden;fillColor=none;top=0;left=0;bottom=0;right=0;pointerEvents=1;fontSize=16;" parent="CdRTeGMsWS6jU6U3bA-B-179" vertex="1">
          <mxGeometry x="88" width="88" height="60" as="geometry">
            <mxRectangle width="88" height="60" as="alternateBounds" />
          </mxGeometry>
        </mxCell>
        <mxCell id="CdRTeGMsWS6jU6U3bA-B-182" value="b" style="shape=partialRectangle;html=1;whiteSpace=wrap;connectable=0;strokeColor=inherit;overflow=hidden;fillColor=none;top=0;left=0;bottom=0;right=0;pointerEvents=1;fontSize=16;" parent="CdRTeGMsWS6jU6U3bA-B-179" vertex="1">
          <mxGeometry x="176" width="88" height="60" as="geometry">
            <mxRectangle width="88" height="60" as="alternateBounds" />
          </mxGeometry>
        </mxCell>
        <mxCell id="CdRTeGMsWS6jU6U3bA-B-183" style="shape=partialRectangle;html=1;whiteSpace=wrap;connectable=0;strokeColor=inherit;overflow=hidden;fillColor=none;top=0;left=0;bottom=0;right=0;pointerEvents=1;fontSize=16;" parent="CdRTeGMsWS6jU6U3bA-B-179" vertex="1">
          <mxGeometry x="264" width="88" height="60" as="geometry">
            <mxRectangle width="88" height="60" as="alternateBounds" />
          </mxGeometry>
        </mxCell>
        <mxCell id="CdRTeGMsWS6jU6U3bA-B-282" style="shape=partialRectangle;html=1;whiteSpace=wrap;connectable=0;strokeColor=inherit;overflow=hidden;fillColor=none;top=0;left=0;bottom=0;right=0;pointerEvents=1;fontSize=16;" parent="CdRTeGMsWS6jU6U3bA-B-179" vertex="1">
          <mxGeometry x="352" width="88" height="60" as="geometry">
            <mxRectangle width="88" height="60" as="alternateBounds" />
          </mxGeometry>
        </mxCell>
        <mxCell id="CdRTeGMsWS6jU6U3bA-B-168" style="shape=tableRow;horizontal=0;startSize=0;swimlaneHead=0;swimlaneBody=0;strokeColor=inherit;top=0;left=0;bottom=0;right=0;collapsible=0;dropTarget=0;fillColor=none;points=[[0,0.5],[1,0.5]];portConstraint=eastwest;fontSize=16;" parent="CdRTeGMsWS6jU6U3bA-B-2" vertex="1">
          <mxGeometry y="720" width="440" height="60" as="geometry" />
        </mxCell>
        <mxCell id="CdRTeGMsWS6jU6U3bA-B-169" value="g" style="shape=partialRectangle;html=1;whiteSpace=wrap;connectable=0;strokeColor=inherit;overflow=hidden;fillColor=none;top=0;left=0;bottom=0;right=0;pointerEvents=1;fontSize=16;" parent="CdRTeGMsWS6jU6U3bA-B-168" vertex="1">
          <mxGeometry width="88" height="60" as="geometry">
            <mxRectangle width="88" height="60" as="alternateBounds" />
          </mxGeometry>
        </mxCell>
        <mxCell id="CdRTeGMsWS6jU6U3bA-B-170" style="shape=partialRectangle;html=1;whiteSpace=wrap;connectable=0;strokeColor=inherit;overflow=hidden;fillColor=none;top=0;left=0;bottom=0;right=0;pointerEvents=1;fontSize=16;" parent="CdRTeGMsWS6jU6U3bA-B-168" vertex="1">
          <mxGeometry x="88" width="88" height="60" as="geometry">
            <mxRectangle width="88" height="60" as="alternateBounds" />
          </mxGeometry>
        </mxCell>
        <mxCell id="CdRTeGMsWS6jU6U3bA-B-171" style="shape=partialRectangle;html=1;whiteSpace=wrap;connectable=0;strokeColor=inherit;overflow=hidden;fillColor=none;top=0;left=0;bottom=0;right=0;pointerEvents=1;fontSize=16;" parent="CdRTeGMsWS6jU6U3bA-B-168" vertex="1">
          <mxGeometry x="176" width="88" height="60" as="geometry">
            <mxRectangle width="88" height="60" as="alternateBounds" />
          </mxGeometry>
        </mxCell>
        <mxCell id="CdRTeGMsWS6jU6U3bA-B-172" style="shape=partialRectangle;html=1;whiteSpace=wrap;connectable=0;strokeColor=inherit;overflow=hidden;fillColor=none;top=0;left=0;bottom=0;right=0;pointerEvents=1;fontSize=16;" parent="CdRTeGMsWS6jU6U3bA-B-168" vertex="1">
          <mxGeometry x="264" width="88" height="60" as="geometry">
            <mxRectangle width="88" height="60" as="alternateBounds" />
          </mxGeometry>
        </mxCell>
        <mxCell id="CdRTeGMsWS6jU6U3bA-B-283" style="shape=partialRectangle;html=1;whiteSpace=wrap;connectable=0;strokeColor=inherit;overflow=hidden;fillColor=none;top=0;left=0;bottom=0;right=0;pointerEvents=1;fontSize=16;" parent="CdRTeGMsWS6jU6U3bA-B-168" vertex="1">
          <mxGeometry x="352" width="88" height="60" as="geometry">
            <mxRectangle width="88" height="60" as="alternateBounds" />
          </mxGeometry>
        </mxCell>
        <mxCell id="CdRTeGMsWS6jU6U3bA-B-157" style="shape=tableRow;horizontal=0;startSize=0;swimlaneHead=0;swimlaneBody=0;strokeColor=inherit;top=0;left=0;bottom=0;right=0;collapsible=0;dropTarget=0;fillColor=none;points=[[0,0.5],[1,0.5]];portConstraint=eastwest;fontSize=16;" parent="CdRTeGMsWS6jU6U3bA-B-2" vertex="1">
          <mxGeometry y="780" width="440" height="60" as="geometry" />
        </mxCell>
        <mxCell id="CdRTeGMsWS6jU6U3bA-B-158" style="shape=partialRectangle;html=1;whiteSpace=wrap;connectable=0;strokeColor=inherit;overflow=hidden;fillColor=none;top=0;left=0;bottom=0;right=0;pointerEvents=1;fontSize=16;" parent="CdRTeGMsWS6jU6U3bA-B-157" vertex="1">
          <mxGeometry width="88" height="60" as="geometry">
            <mxRectangle width="88" height="60" as="alternateBounds" />
          </mxGeometry>
        </mxCell>
        <mxCell id="CdRTeGMsWS6jU6U3bA-B-159" value="d" style="shape=partialRectangle;html=1;whiteSpace=wrap;connectable=0;strokeColor=inherit;overflow=hidden;fillColor=none;top=0;left=0;bottom=0;right=0;pointerEvents=1;fontSize=16;" parent="CdRTeGMsWS6jU6U3bA-B-157" vertex="1">
          <mxGeometry x="88" width="88" height="60" as="geometry">
            <mxRectangle width="88" height="60" as="alternateBounds" />
          </mxGeometry>
        </mxCell>
        <mxCell id="CdRTeGMsWS6jU6U3bA-B-160" style="shape=partialRectangle;html=1;whiteSpace=wrap;connectable=0;strokeColor=inherit;overflow=hidden;fillColor=none;top=0;left=0;bottom=0;right=0;pointerEvents=1;fontSize=16;" parent="CdRTeGMsWS6jU6U3bA-B-157" vertex="1">
          <mxGeometry x="176" width="88" height="60" as="geometry">
            <mxRectangle width="88" height="60" as="alternateBounds" />
          </mxGeometry>
        </mxCell>
        <mxCell id="CdRTeGMsWS6jU6U3bA-B-161" style="shape=partialRectangle;html=1;whiteSpace=wrap;connectable=0;strokeColor=inherit;overflow=hidden;fillColor=none;top=0;left=0;bottom=0;right=0;pointerEvents=1;fontSize=16;" parent="CdRTeGMsWS6jU6U3bA-B-157" vertex="1">
          <mxGeometry x="264" width="88" height="60" as="geometry">
            <mxRectangle width="88" height="60" as="alternateBounds" />
          </mxGeometry>
        </mxCell>
        <mxCell id="CdRTeGMsWS6jU6U3bA-B-284" style="shape=partialRectangle;html=1;whiteSpace=wrap;connectable=0;strokeColor=inherit;overflow=hidden;fillColor=none;top=0;left=0;bottom=0;right=0;pointerEvents=1;fontSize=16;" parent="CdRTeGMsWS6jU6U3bA-B-157" vertex="1">
          <mxGeometry x="352" width="88" height="60" as="geometry">
            <mxRectangle width="88" height="60" as="alternateBounds" />
          </mxGeometry>
        </mxCell>
        <mxCell id="CdRTeGMsWS6jU6U3bA-B-146" style="shape=tableRow;horizontal=0;startSize=0;swimlaneHead=0;swimlaneBody=0;strokeColor=inherit;top=0;left=0;bottom=0;right=0;collapsible=0;dropTarget=0;fillColor=none;points=[[0,0.5],[1,0.5]];portConstraint=eastwest;fontSize=16;" parent="CdRTeGMsWS6jU6U3bA-B-2" vertex="1">
          <mxGeometry y="840" width="440" height="60" as="geometry" />
        </mxCell>
        <mxCell id="CdRTeGMsWS6jU6U3bA-B-147" value="h" style="shape=partialRectangle;html=1;whiteSpace=wrap;connectable=0;strokeColor=inherit;overflow=hidden;fillColor=none;top=0;left=0;bottom=0;right=0;pointerEvents=1;fontSize=16;" parent="CdRTeGMsWS6jU6U3bA-B-146" vertex="1">
          <mxGeometry width="88" height="60" as="geometry">
            <mxRectangle width="88" height="60" as="alternateBounds" />
          </mxGeometry>
        </mxCell>
        <mxCell id="CdRTeGMsWS6jU6U3bA-B-148" style="shape=partialRectangle;html=1;whiteSpace=wrap;connectable=0;strokeColor=inherit;overflow=hidden;fillColor=none;top=0;left=0;bottom=0;right=0;pointerEvents=1;fontSize=16;" parent="CdRTeGMsWS6jU6U3bA-B-146" vertex="1">
          <mxGeometry x="88" width="88" height="60" as="geometry">
            <mxRectangle width="88" height="60" as="alternateBounds" />
          </mxGeometry>
        </mxCell>
        <mxCell id="CdRTeGMsWS6jU6U3bA-B-149" style="shape=partialRectangle;html=1;whiteSpace=wrap;connectable=0;strokeColor=inherit;overflow=hidden;fillColor=none;top=0;left=0;bottom=0;right=0;pointerEvents=1;fontSize=16;" parent="CdRTeGMsWS6jU6U3bA-B-146" vertex="1">
          <mxGeometry x="176" width="88" height="60" as="geometry">
            <mxRectangle width="88" height="60" as="alternateBounds" />
          </mxGeometry>
        </mxCell>
        <mxCell id="CdRTeGMsWS6jU6U3bA-B-150" style="shape=partialRectangle;html=1;whiteSpace=wrap;connectable=0;strokeColor=inherit;overflow=hidden;fillColor=none;top=0;left=0;bottom=0;right=0;pointerEvents=1;fontSize=16;" parent="CdRTeGMsWS6jU6U3bA-B-146" vertex="1">
          <mxGeometry x="264" width="88" height="60" as="geometry">
            <mxRectangle width="88" height="60" as="alternateBounds" />
          </mxGeometry>
        </mxCell>
        <mxCell id="CdRTeGMsWS6jU6U3bA-B-285" style="shape=partialRectangle;html=1;whiteSpace=wrap;connectable=0;strokeColor=inherit;overflow=hidden;fillColor=none;top=0;left=0;bottom=0;right=0;pointerEvents=1;fontSize=16;" parent="CdRTeGMsWS6jU6U3bA-B-146" vertex="1">
          <mxGeometry x="352" width="88" height="60" as="geometry">
            <mxRectangle width="88" height="60" as="alternateBounds" />
          </mxGeometry>
        </mxCell>
        <mxCell id="CdRTeGMsWS6jU6U3bA-B-190" value="" style="shape=table;startSize=0;container=1;collapsible=0;childLayout=tableLayout;fontSize=16;" parent="1" vertex="1">
          <mxGeometry x="-280" y="860" width="440" height="960" as="geometry" />
        </mxCell>
        <mxCell id="CdRTeGMsWS6jU6U3bA-B-266" style="shape=tableRow;horizontal=0;startSize=0;swimlaneHead=0;swimlaneBody=0;strokeColor=inherit;top=0;left=0;bottom=0;right=0;collapsible=0;dropTarget=0;fillColor=none;points=[[0,0.5],[1,0.5]];portConstraint=eastwest;fontSize=16;" parent="CdRTeGMsWS6jU6U3bA-B-190" vertex="1">
          <mxGeometry width="440" height="60" as="geometry" />
        </mxCell>
        <mxCell id="CdRTeGMsWS6jU6U3bA-B-267" style="shape=partialRectangle;html=1;whiteSpace=wrap;connectable=0;strokeColor=inherit;overflow=hidden;fillColor=none;top=0;left=0;bottom=0;right=0;pointerEvents=1;fontSize=16;" parent="CdRTeGMsWS6jU6U3bA-B-266" vertex="1">
          <mxGeometry width="88" height="60" as="geometry">
            <mxRectangle width="88" height="60" as="alternateBounds" />
          </mxGeometry>
        </mxCell>
        <mxCell id="CdRTeGMsWS6jU6U3bA-B-268" style="shape=partialRectangle;html=1;whiteSpace=wrap;connectable=0;strokeColor=inherit;overflow=hidden;fillColor=none;top=0;left=0;bottom=0;right=0;pointerEvents=1;fontSize=16;" parent="CdRTeGMsWS6jU6U3bA-B-266" vertex="1">
          <mxGeometry x="88" width="88" height="60" as="geometry">
            <mxRectangle width="88" height="60" as="alternateBounds" />
          </mxGeometry>
        </mxCell>
        <mxCell id="CdRTeGMsWS6jU6U3bA-B-269" style="shape=partialRectangle;html=1;whiteSpace=wrap;connectable=0;strokeColor=inherit;overflow=hidden;fillColor=none;top=0;left=0;bottom=0;right=0;pointerEvents=1;fontSize=16;" parent="CdRTeGMsWS6jU6U3bA-B-266" vertex="1">
          <mxGeometry x="176" width="88" height="60" as="geometry">
            <mxRectangle width="88" height="60" as="alternateBounds" />
          </mxGeometry>
        </mxCell>
        <mxCell id="CdRTeGMsWS6jU6U3bA-B-270" style="shape=partialRectangle;html=1;whiteSpace=wrap;connectable=0;strokeColor=inherit;overflow=hidden;fillColor=none;top=0;left=0;bottom=0;right=0;pointerEvents=1;fontSize=16;" parent="CdRTeGMsWS6jU6U3bA-B-266" vertex="1">
          <mxGeometry x="264" width="88" height="60" as="geometry">
            <mxRectangle width="88" height="60" as="alternateBounds" />
          </mxGeometry>
        </mxCell>
        <mxCell id="CdRTeGMsWS6jU6U3bA-B-286" value="J" style="shape=partialRectangle;html=1;whiteSpace=wrap;connectable=0;strokeColor=inherit;overflow=hidden;fillColor=none;top=0;left=0;bottom=0;right=0;pointerEvents=1;fontSize=16;" parent="CdRTeGMsWS6jU6U3bA-B-266" vertex="1">
          <mxGeometry x="352" width="88" height="60" as="geometry">
            <mxRectangle width="88" height="60" as="alternateBounds" />
          </mxGeometry>
        </mxCell>
        <mxCell id="CdRTeGMsWS6jU6U3bA-B-191" value="" style="shape=tableRow;horizontal=0;startSize=0;swimlaneHead=0;swimlaneBody=0;strokeColor=inherit;top=0;left=0;bottom=0;right=0;collapsible=0;dropTarget=0;fillColor=none;points=[[0,0.5],[1,0.5]];portConstraint=eastwest;fontSize=16;" parent="CdRTeGMsWS6jU6U3bA-B-190" vertex="1">
          <mxGeometry y="60" width="440" height="60" as="geometry" />
        </mxCell>
        <mxCell id="CdRTeGMsWS6jU6U3bA-B-192" value="a" style="shape=partialRectangle;html=1;whiteSpace=wrap;connectable=0;strokeColor=inherit;overflow=hidden;fillColor=none;top=0;left=0;bottom=0;right=0;pointerEvents=1;fontSize=16;" parent="CdRTeGMsWS6jU6U3bA-B-191" vertex="1">
          <mxGeometry width="88" height="60" as="geometry">
            <mxRectangle width="88" height="60" as="alternateBounds" />
          </mxGeometry>
        </mxCell>
        <mxCell id="CdRTeGMsWS6jU6U3bA-B-193" value="" style="shape=partialRectangle;html=1;whiteSpace=wrap;connectable=0;strokeColor=inherit;overflow=hidden;fillColor=none;top=0;left=0;bottom=0;right=0;pointerEvents=1;fontSize=16;" parent="CdRTeGMsWS6jU6U3bA-B-191" vertex="1">
          <mxGeometry x="88" width="88" height="60" as="geometry">
            <mxRectangle width="88" height="60" as="alternateBounds" />
          </mxGeometry>
        </mxCell>
        <mxCell id="CdRTeGMsWS6jU6U3bA-B-194" value="" style="shape=partialRectangle;html=1;whiteSpace=wrap;connectable=0;strokeColor=inherit;overflow=hidden;fillColor=none;top=0;left=0;bottom=0;right=0;pointerEvents=1;fontSize=16;" parent="CdRTeGMsWS6jU6U3bA-B-191" vertex="1">
          <mxGeometry x="176" width="88" height="60" as="geometry">
            <mxRectangle width="88" height="60" as="alternateBounds" />
          </mxGeometry>
        </mxCell>
        <mxCell id="CdRTeGMsWS6jU6U3bA-B-195" value="" style="shape=partialRectangle;html=1;whiteSpace=wrap;connectable=0;strokeColor=inherit;overflow=hidden;fillColor=none;top=0;left=0;bottom=0;right=0;pointerEvents=1;fontSize=16;" parent="CdRTeGMsWS6jU6U3bA-B-191" vertex="1">
          <mxGeometry x="264" width="88" height="60" as="geometry">
            <mxRectangle width="88" height="60" as="alternateBounds" />
          </mxGeometry>
        </mxCell>
        <mxCell id="CdRTeGMsWS6jU6U3bA-B-287" style="shape=partialRectangle;html=1;whiteSpace=wrap;connectable=0;strokeColor=inherit;overflow=hidden;fillColor=none;top=0;left=0;bottom=0;right=0;pointerEvents=1;fontSize=16;" parent="CdRTeGMsWS6jU6U3bA-B-191" vertex="1">
          <mxGeometry x="352" width="88" height="60" as="geometry">
            <mxRectangle width="88" height="60" as="alternateBounds" />
          </mxGeometry>
        </mxCell>
        <mxCell id="CdRTeGMsWS6jU6U3bA-B-196" value="" style="shape=tableRow;horizontal=0;startSize=0;swimlaneHead=0;swimlaneBody=0;strokeColor=inherit;top=0;left=0;bottom=0;right=0;collapsible=0;dropTarget=0;fillColor=none;points=[[0,0.5],[1,0.5]];portConstraint=eastwest;fontSize=16;" parent="CdRTeGMsWS6jU6U3bA-B-190" vertex="1">
          <mxGeometry y="120" width="440" height="60" as="geometry" />
        </mxCell>
        <mxCell id="CdRTeGMsWS6jU6U3bA-B-197" value="" style="shape=partialRectangle;html=1;whiteSpace=wrap;connectable=0;strokeColor=inherit;overflow=hidden;fillColor=none;top=0;left=0;bottom=0;right=0;pointerEvents=1;fontSize=16;" parent="CdRTeGMsWS6jU6U3bA-B-196" vertex="1">
          <mxGeometry width="88" height="60" as="geometry">
            <mxRectangle width="88" height="60" as="alternateBounds" />
          </mxGeometry>
        </mxCell>
        <mxCell id="CdRTeGMsWS6jU6U3bA-B-198" value="a" style="shape=partialRectangle;html=1;whiteSpace=wrap;connectable=0;strokeColor=inherit;overflow=hidden;fillColor=none;top=0;left=0;bottom=0;right=0;pointerEvents=1;fontSize=16;" parent="CdRTeGMsWS6jU6U3bA-B-196" vertex="1">
          <mxGeometry x="88" width="88" height="60" as="geometry">
            <mxRectangle width="88" height="60" as="alternateBounds" />
          </mxGeometry>
        </mxCell>
        <mxCell id="CdRTeGMsWS6jU6U3bA-B-199" value="" style="shape=partialRectangle;html=1;whiteSpace=wrap;connectable=0;strokeColor=inherit;overflow=hidden;fillColor=none;top=0;left=0;bottom=0;right=0;pointerEvents=1;fontSize=16;" parent="CdRTeGMsWS6jU6U3bA-B-196" vertex="1">
          <mxGeometry x="176" width="88" height="60" as="geometry">
            <mxRectangle width="88" height="60" as="alternateBounds" />
          </mxGeometry>
        </mxCell>
        <mxCell id="CdRTeGMsWS6jU6U3bA-B-200" value="" style="shape=partialRectangle;html=1;whiteSpace=wrap;connectable=0;strokeColor=inherit;overflow=hidden;fillColor=none;top=0;left=0;bottom=0;right=0;pointerEvents=1;fontSize=16;" parent="CdRTeGMsWS6jU6U3bA-B-196" vertex="1">
          <mxGeometry x="264" width="88" height="60" as="geometry">
            <mxRectangle width="88" height="60" as="alternateBounds" />
          </mxGeometry>
        </mxCell>
        <mxCell id="CdRTeGMsWS6jU6U3bA-B-288" style="shape=partialRectangle;html=1;whiteSpace=wrap;connectable=0;strokeColor=inherit;overflow=hidden;fillColor=none;top=0;left=0;bottom=0;right=0;pointerEvents=1;fontSize=16;" parent="CdRTeGMsWS6jU6U3bA-B-196" vertex="1">
          <mxGeometry x="352" width="88" height="60" as="geometry">
            <mxRectangle width="88" height="60" as="alternateBounds" />
          </mxGeometry>
        </mxCell>
        <mxCell id="CdRTeGMsWS6jU6U3bA-B-201" value="" style="shape=tableRow;horizontal=0;startSize=0;swimlaneHead=0;swimlaneBody=0;strokeColor=inherit;top=0;left=0;bottom=0;right=0;collapsible=0;dropTarget=0;fillColor=none;points=[[0,0.5],[1,0.5]];portConstraint=eastwest;fontSize=16;" parent="CdRTeGMsWS6jU6U3bA-B-190" vertex="1">
          <mxGeometry y="180" width="440" height="60" as="geometry" />
        </mxCell>
        <mxCell id="CdRTeGMsWS6jU6U3bA-B-202" value="b" style="shape=partialRectangle;html=1;whiteSpace=wrap;connectable=0;strokeColor=inherit;overflow=hidden;fillColor=none;top=0;left=0;bottom=0;right=0;pointerEvents=1;fontSize=16;" parent="CdRTeGMsWS6jU6U3bA-B-201" vertex="1">
          <mxGeometry width="88" height="60" as="geometry">
            <mxRectangle width="88" height="60" as="alternateBounds" />
          </mxGeometry>
        </mxCell>
        <mxCell id="CdRTeGMsWS6jU6U3bA-B-203" value="" style="shape=partialRectangle;html=1;whiteSpace=wrap;connectable=0;strokeColor=inherit;overflow=hidden;fillColor=none;top=0;left=0;bottom=0;right=0;pointerEvents=1;fontSize=16;" parent="CdRTeGMsWS6jU6U3bA-B-201" vertex="1">
          <mxGeometry x="88" width="88" height="60" as="geometry">
            <mxRectangle width="88" height="60" as="alternateBounds" />
          </mxGeometry>
        </mxCell>
        <mxCell id="CdRTeGMsWS6jU6U3bA-B-204" value="" style="shape=partialRectangle;html=1;whiteSpace=wrap;connectable=0;strokeColor=inherit;overflow=hidden;fillColor=none;top=0;left=0;bottom=0;right=0;pointerEvents=1;fontSize=16;" parent="CdRTeGMsWS6jU6U3bA-B-201" vertex="1">
          <mxGeometry x="176" width="88" height="60" as="geometry">
            <mxRectangle width="88" height="60" as="alternateBounds" />
          </mxGeometry>
        </mxCell>
        <mxCell id="CdRTeGMsWS6jU6U3bA-B-205" value="" style="shape=partialRectangle;html=1;whiteSpace=wrap;connectable=0;strokeColor=inherit;overflow=hidden;fillColor=none;top=0;left=0;bottom=0;right=0;pointerEvents=1;fontSize=16;" parent="CdRTeGMsWS6jU6U3bA-B-201" vertex="1">
          <mxGeometry x="264" width="88" height="60" as="geometry">
            <mxRectangle width="88" height="60" as="alternateBounds" />
          </mxGeometry>
        </mxCell>
        <mxCell id="CdRTeGMsWS6jU6U3bA-B-289" style="shape=partialRectangle;html=1;whiteSpace=wrap;connectable=0;strokeColor=inherit;overflow=hidden;fillColor=none;top=0;left=0;bottom=0;right=0;pointerEvents=1;fontSize=16;" parent="CdRTeGMsWS6jU6U3bA-B-201" vertex="1">
          <mxGeometry x="352" width="88" height="60" as="geometry">
            <mxRectangle width="88" height="60" as="alternateBounds" />
          </mxGeometry>
        </mxCell>
        <mxCell id="CdRTeGMsWS6jU6U3bA-B-206" value="" style="shape=tableRow;horizontal=0;startSize=0;swimlaneHead=0;swimlaneBody=0;strokeColor=inherit;top=0;left=0;bottom=0;right=0;collapsible=0;dropTarget=0;fillColor=none;points=[[0,0.5],[1,0.5]];portConstraint=eastwest;fontSize=16;" parent="CdRTeGMsWS6jU6U3bA-B-190" vertex="1">
          <mxGeometry y="240" width="440" height="60" as="geometry" />
        </mxCell>
        <mxCell id="CdRTeGMsWS6jU6U3bA-B-207" value="" style="shape=partialRectangle;html=1;whiteSpace=wrap;connectable=0;strokeColor=inherit;overflow=hidden;fillColor=none;top=0;left=0;bottom=0;right=0;pointerEvents=1;fontSize=16;" parent="CdRTeGMsWS6jU6U3bA-B-206" vertex="1">
          <mxGeometry width="88" height="60" as="geometry">
            <mxRectangle width="88" height="60" as="alternateBounds" />
          </mxGeometry>
        </mxCell>
        <mxCell id="CdRTeGMsWS6jU6U3bA-B-208" value="" style="shape=partialRectangle;html=1;whiteSpace=wrap;connectable=0;strokeColor=inherit;overflow=hidden;fillColor=none;top=0;left=0;bottom=0;right=0;pointerEvents=1;fontSize=16;" parent="CdRTeGMsWS6jU6U3bA-B-206" vertex="1">
          <mxGeometry x="88" width="88" height="60" as="geometry">
            <mxRectangle width="88" height="60" as="alternateBounds" />
          </mxGeometry>
        </mxCell>
        <mxCell id="CdRTeGMsWS6jU6U3bA-B-209" value="a" style="shape=partialRectangle;html=1;whiteSpace=wrap;connectable=0;strokeColor=inherit;overflow=hidden;fillColor=none;top=0;left=0;bottom=0;right=0;pointerEvents=1;fontSize=16;" parent="CdRTeGMsWS6jU6U3bA-B-206" vertex="1">
          <mxGeometry x="176" width="88" height="60" as="geometry">
            <mxRectangle width="88" height="60" as="alternateBounds" />
          </mxGeometry>
        </mxCell>
        <mxCell id="CdRTeGMsWS6jU6U3bA-B-210" value="" style="shape=partialRectangle;html=1;whiteSpace=wrap;connectable=0;strokeColor=inherit;overflow=hidden;fillColor=none;top=0;left=0;bottom=0;right=0;pointerEvents=1;fontSize=16;" parent="CdRTeGMsWS6jU6U3bA-B-206" vertex="1">
          <mxGeometry x="264" width="88" height="60" as="geometry">
            <mxRectangle width="88" height="60" as="alternateBounds" />
          </mxGeometry>
        </mxCell>
        <mxCell id="CdRTeGMsWS6jU6U3bA-B-290" style="shape=partialRectangle;html=1;whiteSpace=wrap;connectable=0;strokeColor=inherit;overflow=hidden;fillColor=none;top=0;left=0;bottom=0;right=0;pointerEvents=1;fontSize=16;" parent="CdRTeGMsWS6jU6U3bA-B-206" vertex="1">
          <mxGeometry x="352" width="88" height="60" as="geometry">
            <mxRectangle width="88" height="60" as="alternateBounds" />
          </mxGeometry>
        </mxCell>
        <mxCell id="CdRTeGMsWS6jU6U3bA-B-211" value="" style="shape=tableRow;horizontal=0;startSize=0;swimlaneHead=0;swimlaneBody=0;strokeColor=inherit;top=0;left=0;bottom=0;right=0;collapsible=0;dropTarget=0;fillColor=none;points=[[0,0.5],[1,0.5]];portConstraint=eastwest;fontSize=16;" parent="CdRTeGMsWS6jU6U3bA-B-190" vertex="1">
          <mxGeometry y="300" width="440" height="60" as="geometry" />
        </mxCell>
        <mxCell id="CdRTeGMsWS6jU6U3bA-B-212" value="c" style="shape=partialRectangle;html=1;whiteSpace=wrap;connectable=0;strokeColor=inherit;overflow=hidden;fillColor=none;top=0;left=0;bottom=0;right=0;pointerEvents=1;fontSize=16;" parent="CdRTeGMsWS6jU6U3bA-B-211" vertex="1">
          <mxGeometry width="88" height="60" as="geometry">
            <mxRectangle width="88" height="60" as="alternateBounds" />
          </mxGeometry>
        </mxCell>
        <mxCell id="CdRTeGMsWS6jU6U3bA-B-213" value="" style="shape=partialRectangle;html=1;whiteSpace=wrap;connectable=0;strokeColor=inherit;overflow=hidden;fillColor=none;top=0;left=0;bottom=0;right=0;pointerEvents=1;fontSize=16;" parent="CdRTeGMsWS6jU6U3bA-B-211" vertex="1">
          <mxGeometry x="88" width="88" height="60" as="geometry">
            <mxRectangle width="88" height="60" as="alternateBounds" />
          </mxGeometry>
        </mxCell>
        <mxCell id="CdRTeGMsWS6jU6U3bA-B-214" value="" style="shape=partialRectangle;html=1;whiteSpace=wrap;connectable=0;strokeColor=inherit;overflow=hidden;fillColor=none;top=0;left=0;bottom=0;right=0;pointerEvents=1;fontSize=16;" parent="CdRTeGMsWS6jU6U3bA-B-211" vertex="1">
          <mxGeometry x="176" width="88" height="60" as="geometry">
            <mxRectangle width="88" height="60" as="alternateBounds" />
          </mxGeometry>
        </mxCell>
        <mxCell id="CdRTeGMsWS6jU6U3bA-B-215" value="" style="shape=partialRectangle;html=1;whiteSpace=wrap;connectable=0;strokeColor=inherit;overflow=hidden;fillColor=none;top=0;left=0;bottom=0;right=0;pointerEvents=1;fontSize=16;" parent="CdRTeGMsWS6jU6U3bA-B-211" vertex="1">
          <mxGeometry x="264" width="88" height="60" as="geometry">
            <mxRectangle width="88" height="60" as="alternateBounds" />
          </mxGeometry>
        </mxCell>
        <mxCell id="CdRTeGMsWS6jU6U3bA-B-291" style="shape=partialRectangle;html=1;whiteSpace=wrap;connectable=0;strokeColor=inherit;overflow=hidden;fillColor=none;top=0;left=0;bottom=0;right=0;pointerEvents=1;fontSize=16;" parent="CdRTeGMsWS6jU6U3bA-B-211" vertex="1">
          <mxGeometry x="352" width="88" height="60" as="geometry">
            <mxRectangle width="88" height="60" as="alternateBounds" />
          </mxGeometry>
        </mxCell>
        <mxCell id="CdRTeGMsWS6jU6U3bA-B-216" value="" style="shape=tableRow;horizontal=0;startSize=0;swimlaneHead=0;swimlaneBody=0;strokeColor=inherit;top=0;left=0;bottom=0;right=0;collapsible=0;dropTarget=0;fillColor=none;points=[[0,0.5],[1,0.5]];portConstraint=eastwest;fontSize=16;" parent="CdRTeGMsWS6jU6U3bA-B-190" vertex="1">
          <mxGeometry y="360" width="440" height="60" as="geometry" />
        </mxCell>
        <mxCell id="CdRTeGMsWS6jU6U3bA-B-217" value="" style="shape=partialRectangle;html=1;whiteSpace=wrap;connectable=0;strokeColor=inherit;overflow=hidden;fillColor=none;top=0;left=0;bottom=0;right=0;pointerEvents=1;fontSize=16;" parent="CdRTeGMsWS6jU6U3bA-B-216" vertex="1">
          <mxGeometry width="88" height="60" as="geometry">
            <mxRectangle width="88" height="60" as="alternateBounds" />
          </mxGeometry>
        </mxCell>
        <mxCell id="CdRTeGMsWS6jU6U3bA-B-218" value="b" style="shape=partialRectangle;html=1;whiteSpace=wrap;connectable=0;strokeColor=inherit;overflow=hidden;fillColor=none;top=0;left=0;bottom=0;right=0;pointerEvents=1;fontSize=16;" parent="CdRTeGMsWS6jU6U3bA-B-216" vertex="1">
          <mxGeometry x="88" width="88" height="60" as="geometry">
            <mxRectangle width="88" height="60" as="alternateBounds" />
          </mxGeometry>
        </mxCell>
        <mxCell id="CdRTeGMsWS6jU6U3bA-B-219" value="" style="shape=partialRectangle;html=1;whiteSpace=wrap;connectable=0;strokeColor=inherit;overflow=hidden;fillColor=none;top=0;left=0;bottom=0;right=0;pointerEvents=1;fontSize=16;" parent="CdRTeGMsWS6jU6U3bA-B-216" vertex="1">
          <mxGeometry x="176" width="88" height="60" as="geometry">
            <mxRectangle width="88" height="60" as="alternateBounds" />
          </mxGeometry>
        </mxCell>
        <mxCell id="CdRTeGMsWS6jU6U3bA-B-220" value="" style="shape=partialRectangle;html=1;whiteSpace=wrap;connectable=0;strokeColor=inherit;overflow=hidden;fillColor=none;top=0;left=0;bottom=0;right=0;pointerEvents=1;fontSize=16;" parent="CdRTeGMsWS6jU6U3bA-B-216" vertex="1">
          <mxGeometry x="264" width="88" height="60" as="geometry">
            <mxRectangle width="88" height="60" as="alternateBounds" />
          </mxGeometry>
        </mxCell>
        <mxCell id="CdRTeGMsWS6jU6U3bA-B-292" style="shape=partialRectangle;html=1;whiteSpace=wrap;connectable=0;strokeColor=inherit;overflow=hidden;fillColor=none;top=0;left=0;bottom=0;right=0;pointerEvents=1;fontSize=16;" parent="CdRTeGMsWS6jU6U3bA-B-216" vertex="1">
          <mxGeometry x="352" width="88" height="60" as="geometry">
            <mxRectangle width="88" height="60" as="alternateBounds" />
          </mxGeometry>
        </mxCell>
        <mxCell id="CdRTeGMsWS6jU6U3bA-B-221" value="" style="shape=tableRow;horizontal=0;startSize=0;swimlaneHead=0;swimlaneBody=0;strokeColor=inherit;top=0;left=0;bottom=0;right=0;collapsible=0;dropTarget=0;fillColor=none;points=[[0,0.5],[1,0.5]];portConstraint=eastwest;fontSize=16;" parent="CdRTeGMsWS6jU6U3bA-B-190" vertex="1">
          <mxGeometry y="420" width="440" height="60" as="geometry" />
        </mxCell>
        <mxCell id="CdRTeGMsWS6jU6U3bA-B-222" value="d" style="shape=partialRectangle;html=1;whiteSpace=wrap;connectable=0;strokeColor=inherit;overflow=hidden;fillColor=none;top=0;left=0;bottom=0;right=0;pointerEvents=1;fontSize=16;" parent="CdRTeGMsWS6jU6U3bA-B-221" vertex="1">
          <mxGeometry width="88" height="60" as="geometry">
            <mxRectangle width="88" height="60" as="alternateBounds" />
          </mxGeometry>
        </mxCell>
        <mxCell id="CdRTeGMsWS6jU6U3bA-B-223" value="" style="shape=partialRectangle;html=1;whiteSpace=wrap;connectable=0;strokeColor=inherit;overflow=hidden;fillColor=none;top=0;left=0;bottom=0;right=0;pointerEvents=1;fontSize=16;" parent="CdRTeGMsWS6jU6U3bA-B-221" vertex="1">
          <mxGeometry x="88" width="88" height="60" as="geometry">
            <mxRectangle width="88" height="60" as="alternateBounds" />
          </mxGeometry>
        </mxCell>
        <mxCell id="CdRTeGMsWS6jU6U3bA-B-224" value="" style="shape=partialRectangle;html=1;whiteSpace=wrap;connectable=0;strokeColor=inherit;overflow=hidden;fillColor=none;top=0;left=0;bottom=0;right=0;pointerEvents=1;fontSize=16;" parent="CdRTeGMsWS6jU6U3bA-B-221" vertex="1">
          <mxGeometry x="176" width="88" height="60" as="geometry">
            <mxRectangle width="88" height="60" as="alternateBounds" />
          </mxGeometry>
        </mxCell>
        <mxCell id="CdRTeGMsWS6jU6U3bA-B-225" value="" style="shape=partialRectangle;html=1;whiteSpace=wrap;connectable=0;strokeColor=inherit;overflow=hidden;fillColor=none;top=0;left=0;bottom=0;right=0;pointerEvents=1;fontSize=16;" parent="CdRTeGMsWS6jU6U3bA-B-221" vertex="1">
          <mxGeometry x="264" width="88" height="60" as="geometry">
            <mxRectangle width="88" height="60" as="alternateBounds" />
          </mxGeometry>
        </mxCell>
        <mxCell id="CdRTeGMsWS6jU6U3bA-B-293" style="shape=partialRectangle;html=1;whiteSpace=wrap;connectable=0;strokeColor=inherit;overflow=hidden;fillColor=none;top=0;left=0;bottom=0;right=0;pointerEvents=1;fontSize=16;" parent="CdRTeGMsWS6jU6U3bA-B-221" vertex="1">
          <mxGeometry x="352" width="88" height="60" as="geometry">
            <mxRectangle width="88" height="60" as="alternateBounds" />
          </mxGeometry>
        </mxCell>
        <mxCell id="CdRTeGMsWS6jU6U3bA-B-226" value="" style="shape=tableRow;horizontal=0;startSize=0;swimlaneHead=0;swimlaneBody=0;strokeColor=inherit;top=0;left=0;bottom=0;right=0;collapsible=0;dropTarget=0;fillColor=none;points=[[0,0.5],[1,0.5]];portConstraint=eastwest;fontSize=16;" parent="CdRTeGMsWS6jU6U3bA-B-190" vertex="1">
          <mxGeometry y="480" width="440" height="60" as="geometry" />
        </mxCell>
        <mxCell id="CdRTeGMsWS6jU6U3bA-B-227" value="" style="shape=partialRectangle;html=1;whiteSpace=wrap;connectable=0;strokeColor=inherit;overflow=hidden;fillColor=none;top=0;left=0;bottom=0;right=0;pointerEvents=1;fontSize=16;" parent="CdRTeGMsWS6jU6U3bA-B-226" vertex="1">
          <mxGeometry width="88" height="60" as="geometry">
            <mxRectangle width="88" height="60" as="alternateBounds" />
          </mxGeometry>
        </mxCell>
        <mxCell id="CdRTeGMsWS6jU6U3bA-B-228" value="" style="shape=partialRectangle;html=1;whiteSpace=wrap;connectable=0;strokeColor=inherit;overflow=hidden;fillColor=none;top=0;left=0;bottom=0;right=0;pointerEvents=1;fontSize=16;" parent="CdRTeGMsWS6jU6U3bA-B-226" vertex="1">
          <mxGeometry x="88" width="88" height="60" as="geometry">
            <mxRectangle width="88" height="60" as="alternateBounds" />
          </mxGeometry>
        </mxCell>
        <mxCell id="CdRTeGMsWS6jU6U3bA-B-229" value="" style="shape=partialRectangle;html=1;whiteSpace=wrap;connectable=0;strokeColor=inherit;overflow=hidden;fillColor=none;top=0;left=0;bottom=0;right=0;pointerEvents=1;fontSize=16;" parent="CdRTeGMsWS6jU6U3bA-B-226" vertex="1">
          <mxGeometry x="176" width="88" height="60" as="geometry">
            <mxRectangle width="88" height="60" as="alternateBounds" />
          </mxGeometry>
        </mxCell>
        <mxCell id="CdRTeGMsWS6jU6U3bA-B-230" value="F" style="shape=partialRectangle;html=1;whiteSpace=wrap;connectable=0;strokeColor=inherit;overflow=hidden;fillColor=none;top=0;left=0;bottom=0;right=0;pointerEvents=1;fontSize=16;" parent="CdRTeGMsWS6jU6U3bA-B-226" vertex="1">
          <mxGeometry x="264" width="88" height="60" as="geometry">
            <mxRectangle width="88" height="60" as="alternateBounds" />
          </mxGeometry>
        </mxCell>
        <mxCell id="CdRTeGMsWS6jU6U3bA-B-294" style="shape=partialRectangle;html=1;whiteSpace=wrap;connectable=0;strokeColor=inherit;overflow=hidden;fillColor=none;top=0;left=0;bottom=0;right=0;pointerEvents=1;fontSize=16;" parent="CdRTeGMsWS6jU6U3bA-B-226" vertex="1">
          <mxGeometry x="352" width="88" height="60" as="geometry">
            <mxRectangle width="88" height="60" as="alternateBounds" />
          </mxGeometry>
        </mxCell>
        <mxCell id="CdRTeGMsWS6jU6U3bA-B-231" value="" style="shape=tableRow;horizontal=0;startSize=0;swimlaneHead=0;swimlaneBody=0;strokeColor=inherit;top=0;left=0;bottom=0;right=0;collapsible=0;dropTarget=0;fillColor=none;points=[[0,0.5],[1,0.5]];portConstraint=eastwest;fontSize=16;" parent="CdRTeGMsWS6jU6U3bA-B-190" vertex="1">
          <mxGeometry y="540" width="440" height="60" as="geometry" />
        </mxCell>
        <mxCell id="CdRTeGMsWS6jU6U3bA-B-232" value="e" style="shape=partialRectangle;html=1;whiteSpace=wrap;connectable=0;strokeColor=inherit;overflow=hidden;fillColor=none;top=0;left=0;bottom=0;right=0;pointerEvents=1;fontSize=16;" parent="CdRTeGMsWS6jU6U3bA-B-231" vertex="1">
          <mxGeometry width="88" height="60" as="geometry">
            <mxRectangle width="88" height="60" as="alternateBounds" />
          </mxGeometry>
        </mxCell>
        <mxCell id="CdRTeGMsWS6jU6U3bA-B-233" value="" style="shape=partialRectangle;html=1;whiteSpace=wrap;connectable=0;strokeColor=inherit;overflow=hidden;fillColor=none;top=0;left=0;bottom=0;right=0;pointerEvents=1;fontSize=16;" parent="CdRTeGMsWS6jU6U3bA-B-231" vertex="1">
          <mxGeometry x="88" width="88" height="60" as="geometry">
            <mxRectangle width="88" height="60" as="alternateBounds" />
          </mxGeometry>
        </mxCell>
        <mxCell id="CdRTeGMsWS6jU6U3bA-B-234" value="" style="shape=partialRectangle;html=1;whiteSpace=wrap;connectable=0;strokeColor=inherit;overflow=hidden;fillColor=none;top=0;left=0;bottom=0;right=0;pointerEvents=1;fontSize=16;" parent="CdRTeGMsWS6jU6U3bA-B-231" vertex="1">
          <mxGeometry x="176" width="88" height="60" as="geometry">
            <mxRectangle width="88" height="60" as="alternateBounds" />
          </mxGeometry>
        </mxCell>
        <mxCell id="CdRTeGMsWS6jU6U3bA-B-235" value="" style="shape=partialRectangle;html=1;whiteSpace=wrap;connectable=0;strokeColor=inherit;overflow=hidden;fillColor=none;top=0;left=0;bottom=0;right=0;pointerEvents=1;fontSize=16;" parent="CdRTeGMsWS6jU6U3bA-B-231" vertex="1">
          <mxGeometry x="264" width="88" height="60" as="geometry">
            <mxRectangle width="88" height="60" as="alternateBounds" />
          </mxGeometry>
        </mxCell>
        <mxCell id="CdRTeGMsWS6jU6U3bA-B-295" style="shape=partialRectangle;html=1;whiteSpace=wrap;connectable=0;strokeColor=inherit;overflow=hidden;fillColor=none;top=0;left=0;bottom=0;right=0;pointerEvents=1;fontSize=16;" parent="CdRTeGMsWS6jU6U3bA-B-231" vertex="1">
          <mxGeometry x="352" width="88" height="60" as="geometry">
            <mxRectangle width="88" height="60" as="alternateBounds" />
          </mxGeometry>
        </mxCell>
        <mxCell id="CdRTeGMsWS6jU6U3bA-B-236" style="shape=tableRow;horizontal=0;startSize=0;swimlaneHead=0;swimlaneBody=0;strokeColor=inherit;top=0;left=0;bottom=0;right=0;collapsible=0;dropTarget=0;fillColor=none;points=[[0,0.5],[1,0.5]];portConstraint=eastwest;fontSize=16;" parent="CdRTeGMsWS6jU6U3bA-B-190" vertex="1">
          <mxGeometry y="600" width="440" height="60" as="geometry" />
        </mxCell>
        <mxCell id="CdRTeGMsWS6jU6U3bA-B-237" style="shape=partialRectangle;html=1;whiteSpace=wrap;connectable=0;strokeColor=inherit;overflow=hidden;fillColor=none;top=0;left=0;bottom=0;right=0;pointerEvents=1;fontSize=16;" parent="CdRTeGMsWS6jU6U3bA-B-236" vertex="1">
          <mxGeometry width="88" height="60" as="geometry">
            <mxRectangle width="88" height="60" as="alternateBounds" />
          </mxGeometry>
        </mxCell>
        <mxCell id="CdRTeGMsWS6jU6U3bA-B-238" value="c" style="shape=partialRectangle;html=1;whiteSpace=wrap;connectable=0;strokeColor=inherit;overflow=hidden;fillColor=none;top=0;left=0;bottom=0;right=0;pointerEvents=1;fontSize=16;" parent="CdRTeGMsWS6jU6U3bA-B-236" vertex="1">
          <mxGeometry x="88" width="88" height="60" as="geometry">
            <mxRectangle width="88" height="60" as="alternateBounds" />
          </mxGeometry>
        </mxCell>
        <mxCell id="CdRTeGMsWS6jU6U3bA-B-239" style="shape=partialRectangle;html=1;whiteSpace=wrap;connectable=0;strokeColor=inherit;overflow=hidden;fillColor=none;top=0;left=0;bottom=0;right=0;pointerEvents=1;fontSize=16;" parent="CdRTeGMsWS6jU6U3bA-B-236" vertex="1">
          <mxGeometry x="176" width="88" height="60" as="geometry">
            <mxRectangle width="88" height="60" as="alternateBounds" />
          </mxGeometry>
        </mxCell>
        <mxCell id="CdRTeGMsWS6jU6U3bA-B-240" style="shape=partialRectangle;html=1;whiteSpace=wrap;connectable=0;strokeColor=inherit;overflow=hidden;fillColor=none;top=0;left=0;bottom=0;right=0;pointerEvents=1;fontSize=16;" parent="CdRTeGMsWS6jU6U3bA-B-236" vertex="1">
          <mxGeometry x="264" width="88" height="60" as="geometry">
            <mxRectangle width="88" height="60" as="alternateBounds" />
          </mxGeometry>
        </mxCell>
        <mxCell id="CdRTeGMsWS6jU6U3bA-B-296" style="shape=partialRectangle;html=1;whiteSpace=wrap;connectable=0;strokeColor=inherit;overflow=hidden;fillColor=none;top=0;left=0;bottom=0;right=0;pointerEvents=1;fontSize=16;" parent="CdRTeGMsWS6jU6U3bA-B-236" vertex="1">
          <mxGeometry x="352" width="88" height="60" as="geometry">
            <mxRectangle width="88" height="60" as="alternateBounds" />
          </mxGeometry>
        </mxCell>
        <mxCell id="CdRTeGMsWS6jU6U3bA-B-241" style="shape=tableRow;horizontal=0;startSize=0;swimlaneHead=0;swimlaneBody=0;strokeColor=inherit;top=0;left=0;bottom=0;right=0;collapsible=0;dropTarget=0;fillColor=none;points=[[0,0.5],[1,0.5]];portConstraint=eastwest;fontSize=16;" parent="CdRTeGMsWS6jU6U3bA-B-190" vertex="1">
          <mxGeometry y="660" width="440" height="60" as="geometry" />
        </mxCell>
        <mxCell id="CdRTeGMsWS6jU6U3bA-B-242" value="f" style="shape=partialRectangle;html=1;whiteSpace=wrap;connectable=0;strokeColor=inherit;overflow=hidden;fillColor=none;top=0;left=0;bottom=0;right=0;pointerEvents=1;fontSize=16;" parent="CdRTeGMsWS6jU6U3bA-B-241" vertex="1">
          <mxGeometry width="88" height="60" as="geometry">
            <mxRectangle width="88" height="60" as="alternateBounds" />
          </mxGeometry>
        </mxCell>
        <mxCell id="CdRTeGMsWS6jU6U3bA-B-243" style="shape=partialRectangle;html=1;whiteSpace=wrap;connectable=0;strokeColor=inherit;overflow=hidden;fillColor=none;top=0;left=0;bottom=0;right=0;pointerEvents=1;fontSize=16;" parent="CdRTeGMsWS6jU6U3bA-B-241" vertex="1">
          <mxGeometry x="88" width="88" height="60" as="geometry">
            <mxRectangle width="88" height="60" as="alternateBounds" />
          </mxGeometry>
        </mxCell>
        <mxCell id="CdRTeGMsWS6jU6U3bA-B-244" style="shape=partialRectangle;html=1;whiteSpace=wrap;connectable=0;strokeColor=inherit;overflow=hidden;fillColor=none;top=0;left=0;bottom=0;right=0;pointerEvents=1;fontSize=16;" parent="CdRTeGMsWS6jU6U3bA-B-241" vertex="1">
          <mxGeometry x="176" width="88" height="60" as="geometry">
            <mxRectangle width="88" height="60" as="alternateBounds" />
          </mxGeometry>
        </mxCell>
        <mxCell id="CdRTeGMsWS6jU6U3bA-B-245" style="shape=partialRectangle;html=1;whiteSpace=wrap;connectable=0;strokeColor=inherit;overflow=hidden;fillColor=none;top=0;left=0;bottom=0;right=0;pointerEvents=1;fontSize=16;" parent="CdRTeGMsWS6jU6U3bA-B-241" vertex="1">
          <mxGeometry x="264" width="88" height="60" as="geometry">
            <mxRectangle width="88" height="60" as="alternateBounds" />
          </mxGeometry>
        </mxCell>
        <mxCell id="CdRTeGMsWS6jU6U3bA-B-297" style="shape=partialRectangle;html=1;whiteSpace=wrap;connectable=0;strokeColor=inherit;overflow=hidden;fillColor=none;top=0;left=0;bottom=0;right=0;pointerEvents=1;fontSize=16;" parent="CdRTeGMsWS6jU6U3bA-B-241" vertex="1">
          <mxGeometry x="352" width="88" height="60" as="geometry">
            <mxRectangle width="88" height="60" as="alternateBounds" />
          </mxGeometry>
        </mxCell>
        <mxCell id="CdRTeGMsWS6jU6U3bA-B-246" style="shape=tableRow;horizontal=0;startSize=0;swimlaneHead=0;swimlaneBody=0;strokeColor=inherit;top=0;left=0;bottom=0;right=0;collapsible=0;dropTarget=0;fillColor=none;points=[[0,0.5],[1,0.5]];portConstraint=eastwest;fontSize=16;" parent="CdRTeGMsWS6jU6U3bA-B-190" vertex="1">
          <mxGeometry y="720" width="440" height="60" as="geometry" />
        </mxCell>
        <mxCell id="CdRTeGMsWS6jU6U3bA-B-247" style="shape=partialRectangle;html=1;whiteSpace=wrap;connectable=0;strokeColor=inherit;overflow=hidden;fillColor=none;top=0;left=0;bottom=0;right=0;pointerEvents=1;fontSize=16;" parent="CdRTeGMsWS6jU6U3bA-B-246" vertex="1">
          <mxGeometry width="88" height="60" as="geometry">
            <mxRectangle width="88" height="60" as="alternateBounds" />
          </mxGeometry>
        </mxCell>
        <mxCell id="CdRTeGMsWS6jU6U3bA-B-248" style="shape=partialRectangle;html=1;whiteSpace=wrap;connectable=0;strokeColor=inherit;overflow=hidden;fillColor=none;top=0;left=0;bottom=0;right=0;pointerEvents=1;fontSize=16;" parent="CdRTeGMsWS6jU6U3bA-B-246" vertex="1">
          <mxGeometry x="88" width="88" height="60" as="geometry">
            <mxRectangle width="88" height="60" as="alternateBounds" />
          </mxGeometry>
        </mxCell>
        <mxCell id="CdRTeGMsWS6jU6U3bA-B-249" value="b" style="shape=partialRectangle;html=1;whiteSpace=wrap;connectable=0;strokeColor=inherit;overflow=hidden;fillColor=none;top=0;left=0;bottom=0;right=0;pointerEvents=1;fontSize=16;" parent="CdRTeGMsWS6jU6U3bA-B-246" vertex="1">
          <mxGeometry x="176" width="88" height="60" as="geometry">
            <mxRectangle width="88" height="60" as="alternateBounds" />
          </mxGeometry>
        </mxCell>
        <mxCell id="CdRTeGMsWS6jU6U3bA-B-250" style="shape=partialRectangle;html=1;whiteSpace=wrap;connectable=0;strokeColor=inherit;overflow=hidden;fillColor=none;top=0;left=0;bottom=0;right=0;pointerEvents=1;fontSize=16;" parent="CdRTeGMsWS6jU6U3bA-B-246" vertex="1">
          <mxGeometry x="264" width="88" height="60" as="geometry">
            <mxRectangle width="88" height="60" as="alternateBounds" />
          </mxGeometry>
        </mxCell>
        <mxCell id="CdRTeGMsWS6jU6U3bA-B-298" style="shape=partialRectangle;html=1;whiteSpace=wrap;connectable=0;strokeColor=inherit;overflow=hidden;fillColor=none;top=0;left=0;bottom=0;right=0;pointerEvents=1;fontSize=16;" parent="CdRTeGMsWS6jU6U3bA-B-246" vertex="1">
          <mxGeometry x="352" width="88" height="60" as="geometry">
            <mxRectangle width="88" height="60" as="alternateBounds" />
          </mxGeometry>
        </mxCell>
        <mxCell id="CdRTeGMsWS6jU6U3bA-B-251" style="shape=tableRow;horizontal=0;startSize=0;swimlaneHead=0;swimlaneBody=0;strokeColor=inherit;top=0;left=0;bottom=0;right=0;collapsible=0;dropTarget=0;fillColor=none;points=[[0,0.5],[1,0.5]];portConstraint=eastwest;fontSize=16;" parent="CdRTeGMsWS6jU6U3bA-B-190" vertex="1">
          <mxGeometry y="780" width="440" height="60" as="geometry" />
        </mxCell>
        <mxCell id="CdRTeGMsWS6jU6U3bA-B-252" value="g" style="shape=partialRectangle;html=1;whiteSpace=wrap;connectable=0;strokeColor=inherit;overflow=hidden;fillColor=none;top=0;left=0;bottom=0;right=0;pointerEvents=1;fontSize=16;" parent="CdRTeGMsWS6jU6U3bA-B-251" vertex="1">
          <mxGeometry width="88" height="60" as="geometry">
            <mxRectangle width="88" height="60" as="alternateBounds" />
          </mxGeometry>
        </mxCell>
        <mxCell id="CdRTeGMsWS6jU6U3bA-B-253" style="shape=partialRectangle;html=1;whiteSpace=wrap;connectable=0;strokeColor=inherit;overflow=hidden;fillColor=none;top=0;left=0;bottom=0;right=0;pointerEvents=1;fontSize=16;" parent="CdRTeGMsWS6jU6U3bA-B-251" vertex="1">
          <mxGeometry x="88" width="88" height="60" as="geometry">
            <mxRectangle width="88" height="60" as="alternateBounds" />
          </mxGeometry>
        </mxCell>
        <mxCell id="CdRTeGMsWS6jU6U3bA-B-254" style="shape=partialRectangle;html=1;whiteSpace=wrap;connectable=0;strokeColor=inherit;overflow=hidden;fillColor=none;top=0;left=0;bottom=0;right=0;pointerEvents=1;fontSize=16;" parent="CdRTeGMsWS6jU6U3bA-B-251" vertex="1">
          <mxGeometry x="176" width="88" height="60" as="geometry">
            <mxRectangle width="88" height="60" as="alternateBounds" />
          </mxGeometry>
        </mxCell>
        <mxCell id="CdRTeGMsWS6jU6U3bA-B-255" style="shape=partialRectangle;html=1;whiteSpace=wrap;connectable=0;strokeColor=inherit;overflow=hidden;fillColor=none;top=0;left=0;bottom=0;right=0;pointerEvents=1;fontSize=16;" parent="CdRTeGMsWS6jU6U3bA-B-251" vertex="1">
          <mxGeometry x="264" width="88" height="60" as="geometry">
            <mxRectangle width="88" height="60" as="alternateBounds" />
          </mxGeometry>
        </mxCell>
        <mxCell id="CdRTeGMsWS6jU6U3bA-B-299" style="shape=partialRectangle;html=1;whiteSpace=wrap;connectable=0;strokeColor=inherit;overflow=hidden;fillColor=none;top=0;left=0;bottom=0;right=0;pointerEvents=1;fontSize=16;" parent="CdRTeGMsWS6jU6U3bA-B-251" vertex="1">
          <mxGeometry x="352" width="88" height="60" as="geometry">
            <mxRectangle width="88" height="60" as="alternateBounds" />
          </mxGeometry>
        </mxCell>
        <mxCell id="CdRTeGMsWS6jU6U3bA-B-256" style="shape=tableRow;horizontal=0;startSize=0;swimlaneHead=0;swimlaneBody=0;strokeColor=inherit;top=0;left=0;bottom=0;right=0;collapsible=0;dropTarget=0;fillColor=none;points=[[0,0.5],[1,0.5]];portConstraint=eastwest;fontSize=16;" parent="CdRTeGMsWS6jU6U3bA-B-190" vertex="1">
          <mxGeometry y="840" width="440" height="60" as="geometry" />
        </mxCell>
        <mxCell id="CdRTeGMsWS6jU6U3bA-B-257" style="shape=partialRectangle;html=1;whiteSpace=wrap;connectable=0;strokeColor=inherit;overflow=hidden;fillColor=none;top=0;left=0;bottom=0;right=0;pointerEvents=1;fontSize=16;" parent="CdRTeGMsWS6jU6U3bA-B-256" vertex="1">
          <mxGeometry width="88" height="60" as="geometry">
            <mxRectangle width="88" height="60" as="alternateBounds" />
          </mxGeometry>
        </mxCell>
        <mxCell id="CdRTeGMsWS6jU6U3bA-B-258" value="d" style="shape=partialRectangle;html=1;whiteSpace=wrap;connectable=0;strokeColor=inherit;overflow=hidden;fillColor=none;top=0;left=0;bottom=0;right=0;pointerEvents=1;fontSize=16;" parent="CdRTeGMsWS6jU6U3bA-B-256" vertex="1">
          <mxGeometry x="88" width="88" height="60" as="geometry">
            <mxRectangle width="88" height="60" as="alternateBounds" />
          </mxGeometry>
        </mxCell>
        <mxCell id="CdRTeGMsWS6jU6U3bA-B-259" style="shape=partialRectangle;html=1;whiteSpace=wrap;connectable=0;strokeColor=inherit;overflow=hidden;fillColor=none;top=0;left=0;bottom=0;right=0;pointerEvents=1;fontSize=16;" parent="CdRTeGMsWS6jU6U3bA-B-256" vertex="1">
          <mxGeometry x="176" width="88" height="60" as="geometry">
            <mxRectangle width="88" height="60" as="alternateBounds" />
          </mxGeometry>
        </mxCell>
        <mxCell id="CdRTeGMsWS6jU6U3bA-B-260" style="shape=partialRectangle;html=1;whiteSpace=wrap;connectable=0;strokeColor=inherit;overflow=hidden;fillColor=none;top=0;left=0;bottom=0;right=0;pointerEvents=1;fontSize=16;" parent="CdRTeGMsWS6jU6U3bA-B-256" vertex="1">
          <mxGeometry x="264" width="88" height="60" as="geometry">
            <mxRectangle width="88" height="60" as="alternateBounds" />
          </mxGeometry>
        </mxCell>
        <mxCell id="CdRTeGMsWS6jU6U3bA-B-300" style="shape=partialRectangle;html=1;whiteSpace=wrap;connectable=0;strokeColor=inherit;overflow=hidden;fillColor=none;top=0;left=0;bottom=0;right=0;pointerEvents=1;fontSize=16;" parent="CdRTeGMsWS6jU6U3bA-B-256" vertex="1">
          <mxGeometry x="352" width="88" height="60" as="geometry">
            <mxRectangle width="88" height="60" as="alternateBounds" />
          </mxGeometry>
        </mxCell>
        <mxCell id="CdRTeGMsWS6jU6U3bA-B-261" style="shape=tableRow;horizontal=0;startSize=0;swimlaneHead=0;swimlaneBody=0;strokeColor=inherit;top=0;left=0;bottom=0;right=0;collapsible=0;dropTarget=0;fillColor=none;points=[[0,0.5],[1,0.5]];portConstraint=eastwest;fontSize=16;" parent="CdRTeGMsWS6jU6U3bA-B-190" vertex="1">
          <mxGeometry y="900" width="440" height="60" as="geometry" />
        </mxCell>
        <mxCell id="CdRTeGMsWS6jU6U3bA-B-262" value="h" style="shape=partialRectangle;html=1;whiteSpace=wrap;connectable=0;strokeColor=inherit;overflow=hidden;fillColor=none;top=0;left=0;bottom=0;right=0;pointerEvents=1;fontSize=16;" parent="CdRTeGMsWS6jU6U3bA-B-261" vertex="1">
          <mxGeometry width="88" height="60" as="geometry">
            <mxRectangle width="88" height="60" as="alternateBounds" />
          </mxGeometry>
        </mxCell>
        <mxCell id="CdRTeGMsWS6jU6U3bA-B-263" style="shape=partialRectangle;html=1;whiteSpace=wrap;connectable=0;strokeColor=inherit;overflow=hidden;fillColor=none;top=0;left=0;bottom=0;right=0;pointerEvents=1;fontSize=16;" parent="CdRTeGMsWS6jU6U3bA-B-261" vertex="1">
          <mxGeometry x="88" width="88" height="60" as="geometry">
            <mxRectangle width="88" height="60" as="alternateBounds" />
          </mxGeometry>
        </mxCell>
        <mxCell id="CdRTeGMsWS6jU6U3bA-B-264" style="shape=partialRectangle;html=1;whiteSpace=wrap;connectable=0;strokeColor=inherit;overflow=hidden;fillColor=none;top=0;left=0;bottom=0;right=0;pointerEvents=1;fontSize=16;" parent="CdRTeGMsWS6jU6U3bA-B-261" vertex="1">
          <mxGeometry x="176" width="88" height="60" as="geometry">
            <mxRectangle width="88" height="60" as="alternateBounds" />
          </mxGeometry>
        </mxCell>
        <mxCell id="CdRTeGMsWS6jU6U3bA-B-265" style="shape=partialRectangle;html=1;whiteSpace=wrap;connectable=0;strokeColor=inherit;overflow=hidden;fillColor=none;top=0;left=0;bottom=0;right=0;pointerEvents=1;fontSize=16;" parent="CdRTeGMsWS6jU6U3bA-B-261" vertex="1">
          <mxGeometry x="264" width="88" height="60" as="geometry">
            <mxRectangle width="88" height="60" as="alternateBounds" />
          </mxGeometry>
        </mxCell>
        <mxCell id="CdRTeGMsWS6jU6U3bA-B-301" style="shape=partialRectangle;html=1;whiteSpace=wrap;connectable=0;strokeColor=inherit;overflow=hidden;fillColor=none;top=0;left=0;bottom=0;right=0;pointerEvents=1;fontSize=16;" parent="CdRTeGMsWS6jU6U3bA-B-261" vertex="1">
          <mxGeometry x="352" width="88" height="60" as="geometry">
            <mxRectangle width="88" height="60" as="alternateBounds" />
          </mxGeometry>
        </mxCell>
        <mxCell id="CdRTeGMsWS6jU6U3bA-B-302" value="0" style="text;html=1;align=center;verticalAlign=middle;resizable=0;points=[];autosize=1;strokeColor=none;fillColor=none;fontSize=16;" parent="1" vertex="1">
          <mxGeometry x="-355" y="-15" width="30" height="30" as="geometry" />
        </mxCell>
        <mxCell id="CdRTeGMsWS6jU6U3bA-B-303" value="2" style="text;html=1;align=center;verticalAlign=middle;resizable=0;points=[];autosize=1;strokeColor=none;fillColor=none;fontSize=16;" parent="1" vertex="1">
          <mxGeometry x="-385" y="105" width="30" height="30" as="geometry" />
        </mxCell>
        <mxCell id="CdRTeGMsWS6jU6U3bA-B-304" value="4" style="text;html=1;align=center;verticalAlign=middle;resizable=0;points=[];autosize=1;strokeColor=none;fillColor=none;fontSize=16;" parent="1" vertex="1">
          <mxGeometry x="-355" y="215" width="30" height="30" as="geometry" />
        </mxCell>
        <mxCell id="CdRTeGMsWS6jU6U3bA-B-305" value="6" style="text;html=1;align=center;verticalAlign=middle;resizable=0;points=[];autosize=1;strokeColor=none;fillColor=none;fontSize=16;" parent="1" vertex="1">
          <mxGeometry x="-365" y="325" width="30" height="30" as="geometry" />
        </mxCell>
      </root>
    </mxGraphModel>
  </diagram>
</mxfile>
